<svg xmlns="http://www.w3.org/2000/svg" width="226.95" height="210.95" viewBox="0 0 226.95 210.95">
  <g id="Group_7721" data-name="Group 7721" transform="translate(-374.504 -1133.082)">
    <g id="Component_29_49" data-name="Component 29 – 49" transform="translate(375.082 1133.613)">
      <g id="Group_6203" data-name="Group 6203" transform="translate(9.672 7.719)">
        <g id="Group_6201" data-name="Group 6201" transform="translate(0 0)">
          <path id="Path_11091" data-name="Path 11091" d="M211.229,217.354a26.543,26.543,0,0,0,6.144-5.4c13.088-15.9,12.951-38.331,12.051-57.661-1.061-22.817-5.084-45.647-16.714-65.771-11.191-19.395-28.083-35.876-49.222-44.693a92.8,92.8,0,0,0-18.149-5.436A72.682,72.682,0,0,0,110.7,40.022a104.4,104.4,0,0,0-12.517,4.725C70.374,57.2,60.548,81.582,48.192,106.475c-9.161,17.67-18.163,32.048-25.8,50.236-8.553,20.367,5.152,42.624,22.629,53.556a69.3,69.3,0,0,0,12.732,6.206c41.565,15.349,88.442,20.055,131.707,8.885C196.755,223.478,204.824,221.482,211.229,217.354Z" transform="translate(-19.78 -37.032)" fill="#f9ffef"/>
        </g>
      </g>
      <g id="Group_6201-2" data-name="Group 6201">
        <path id="Path_11091-2" data-name="Path 11091" d="M225.747,231.668a28.584,28.584,0,0,0,6.61-5.828c14.081-17.161,13.933-41.373,12.965-62.238-1.141-24.628-5.469-49.271-17.981-70.992-12.04-20.934-30.213-38.724-52.955-48.241A99.59,99.59,0,0,0,154.86,38.5,77.946,77.946,0,0,0,117.6,40.259a112.09,112.09,0,0,0-13.466,5.1C74.21,58.8,63.64,85.118,50.347,111.987c-9.855,19.073-19.54,34.592-27.754,54.224-9.2,21.984,5.543,46.008,24.345,57.807a74.453,74.453,0,0,0,13.7,6.7c44.717,16.567,95.149,21.647,141.7,9.591C210.176,238.278,218.857,236.124,225.747,231.668Z" transform="translate(-19.78 -37.032)" fill="none" stroke="rgba(255,202,0,0.5)" stroke-width="1" stroke-dasharray="127 68"/>
      </g>
    </g>
    <g id="Group_6322" data-name="Group 6322" transform="translate(-174.341 1013.368)">
      <ellipse id="Ellipse_138" data-name="Ellipse 138" cx="24.343" cy="2.047" rx="24.343" ry="2.047" transform="translate(650.633 311.535)" fill="rgba(245,173,73,0.34)"/>
      <g id="Group_6215" data-name="Group 6215" transform="translate(659.318 262.041)">
        <g id="Group_6209" data-name="Group 6209" transform="translate(0 20.506)">
          <path id="Path_11228" data-name="Path 11228" d="M723.515,353.563v2.322H688.838l5.625-1.9,1.258-.425Z" transform="translate(-688.838 -353.563)" fill="#c7762f"/>
          <g id="Group_6207" data-name="Group 6207" transform="translate(0 2.322)">
            <rect id="Rectangle_2309" data-name="Rectangle 2309" width="30.113" height="28.713" transform="translate(0)" fill="#f5ad49"/>
            <g id="Group_6206" data-name="Group 6206" transform="translate(1.36 22.146)">
              <g id="Group_6205" data-name="Group 6205">
                <rect id="Rectangle_2310" data-name="Rectangle 2310" width="12.655" height="1.762" transform="translate(0 2.042)" fill="#c7762f"/>
                <rect id="Rectangle_2311" data-name="Rectangle 2311" width="8.49" height="1.282" fill="#c7762f"/>
              </g>
            </g>
            <path id="Path_11229" data-name="Path 11229" d="M728.475,362.156a2.3,2.3,0,1,1-2.3-2.3A2.3,2.3,0,0,1,728.475,362.156Z" transform="translate(-700.684 -358.012)" fill="#c7762f"/>
            <rect id="Rectangle_2312" data-name="Rectangle 2312" width="1.36" height="28.713" transform="translate(1.36 28.713) rotate(180)" fill="#f5ad49" opacity="0.5" style="mix-blend-mode: screen;isolation: isolate"/>
          </g>
          <g id="Group_6208" data-name="Group 6208" transform="translate(30.113 0)">
            <path id="Path_11230" data-name="Path 11230" d="M738.9,353.563v28.393l-4.564,2.643V355.885l1.22-.618Z" transform="translate(-734.337 -353.563)" fill="#e38c3b"/>
            <path id="Path_11231" data-name="Path 11231" d="M738.9,377.5v5.324l-4.564,2.643V356.755l1.22-.618a93.012,93.012,0,0,0,.57,13.077,20.668,20.668,0,0,0,1.379,6A9.789,9.789,0,0,0,738.9,377.5Z" transform="translate(-734.337 -354.434)" fill="#e38c3b" opacity="0.5" style="mix-blend-mode: multiply;isolation: isolate"/>
          </g>
          <path id="Path_11232" data-name="Path 11232" d="M726.389,353.563v.322a118.548,118.548,0,0,1-29.053.1l1.258-.425Z" transform="translate(-691.711 -353.563)" fill="#c7762f" opacity="0.5" style="mix-blend-mode: multiply;isolation: isolate"/>
        </g>
        <g id="Group_6214" data-name="Group 6214" transform="translate(4.564 0)">
          <path id="Path_11233" data-name="Path 11233" d="M721.283,322.58v1.711H695.734l4.144-1.4.927-.313Z" transform="translate(-695.734 -322.58)" fill="#c7762f"/>
          <g id="Group_6212" data-name="Group 6212" transform="translate(0 1.71)">
            <rect id="Rectangle_2313" data-name="Rectangle 2313" width="22.187" height="21.155" transform="translate(0)" fill="#f5ad49"/>
            <g id="Group_6211" data-name="Group 6211" transform="translate(1.002 16.316)">
              <g id="Group_6210" data-name="Group 6210">
                <rect id="Rectangle_2314" data-name="Rectangle 2314" width="9.324" height="1.298" transform="translate(0 1.505)" fill="#c7762f"/>
                <rect id="Rectangle_2315" data-name="Rectangle 2315" width="6.255" height="0.944" fill="#c7762f"/>
              </g>
            </g>
            <path id="Path_11234" data-name="Path 11234" d="M724.937,328.911a1.7,1.7,0,1,1-1.7-1.7A1.7,1.7,0,0,1,724.937,328.911Z" transform="translate(-704.462 -325.858)" fill="#c7762f"/>
            <rect id="Rectangle_2316" data-name="Rectangle 2316" width="1.002" height="21.155" transform="translate(1.002 21.155) rotate(180)" fill="#f5ad49" opacity="0.5" style="mix-blend-mode: screen;isolation: isolate"/>
          </g>
          <g id="Group_6213" data-name="Group 6213" transform="translate(22.187 0)">
            <path id="Path_11235" data-name="Path 11235" d="M732.619,322.58V343.5l-3.363,1.947V324.291l.9-.456Z" transform="translate(-729.257 -322.58)" fill="#e38c3b"/>
            <path id="Path_11236" data-name="Path 11236" d="M732.619,340.218v3.923l-3.362,1.947V324.932l.9-.456a68.5,68.5,0,0,0,.42,9.635,15.193,15.193,0,0,0,1.016,4.419A7.22,7.22,0,0,0,732.619,340.218Z" transform="translate(-729.257 -323.221)" fill="#e38c3b" opacity="0.5" style="mix-blend-mode: multiply;isolation: isolate"/>
          </g>
          <path id="Path_11237" data-name="Path 11237" d="M723.4,322.58v.237a87.37,87.37,0,0,1-21.405.076l.927-.313Z" transform="translate(-697.851 -322.58)" fill="#c7762f" opacity="0.5" style="mix-blend-mode: multiply;isolation: isolate"/>
        </g>
      </g>
      <g id="Group_6284" data-name="Group 6284" transform="translate(659.273 143.554)">
        <g id="Group_6237" data-name="Group 6237" transform="translate(35.632 105.316)">
          <g id="Group_6232" data-name="Group 6232" transform="translate(0 1.71)">
            <g id="Group_6230" data-name="Group 6230" transform="translate(4.459)">
              <g id="Group_6229" data-name="Group 6229">
                <path id="Path_11249" data-name="Path 11249" d="M765.162,323.665a157.123,157.123,0,0,1,.259,18.713c-.907,19.1-5.179,30.011-5.179,30.011l-6.421-.146L749.8,314.092l-.453-6.548c1.33-.117,2.655-.249,3.956-.365,5.169-.453,10.319-1.14,15.449-1.915A175.532,175.532,0,0,1,765.162,323.665Z" transform="translate(-749.344 -305.264)" fill="#c7683c"/>
              </g>
              <path id="Path_11250" data-name="Path 11250" d="M765.162,323.665a157.123,157.123,0,0,1,.259,18.713l-1.434-15.359a14.252,14.252,0,0,0-14.19-12.928h0l-.453-6.548c1.33-.117,2.655-.249,3.956-.365,5.169-.453,10.319-1.14,15.449-1.915A175.532,175.532,0,0,1,765.162,323.665Z" transform="translate(-749.344 -305.264)" fill="#c7683c" opacity="0.5" style="mix-blend-mode: multiply;isolation: isolate"/>
            </g>
            <g id="Group_6231" data-name="Group 6231" transform="translate(0 56.835)">
              <path id="Path_11251" data-name="Path 11251" d="M758.758,401.136s1.242,3.79.458,5.895h-16.5s-1.082-3.035,3.606-2.7l4.726-2.9-.58-9.661a3.375,3.375,0,0,1,4.643.745l5.763.5Z" transform="translate(-742.607 -391.138)" fill="#024039"/>
              <path id="Path_11252" data-name="Path 11252" d="M757.007,392.513s-1.16,7.917-1.51,8.916-2.095,3.605-4,3.624a7.313,7.313,0,0,1-3.279-.725l4.725-2.9-.58-9.661A3.375,3.375,0,0,1,757.007,392.513Z" transform="translate(-744.505 -391.138)" fill="#024039"/>
            </g>
          </g>
          <g id="Group_6236" data-name="Group 6236" transform="translate(16.607)">
            <g id="Group_6234" data-name="Group 6234">
              <g id="Group_6233" data-name="Group 6233">
                <path id="Path_11253" data-name="Path 11253" d="M784.893,302.68c-2.594.523-5.22.98-7.88,1.393-3.1.481-6.2.936-9.313,1.336,6.916,20.074,16.194,44.419,24.444,60.9,2.591.828,4.091-1.63,6.259-2.081-.422-15.344-6.434-31.133-12.085-45.1C786.027,314.33,785.619,308.644,784.893,302.68Z" transform="translate(-767.699 -302.68)" fill="#d4774c"/>
              </g>
            </g>
            <g id="Group_6235" data-name="Group 6235" transform="translate(19.295 52.811)">
              <path id="Path_11254" data-name="Path 11254" d="M809.469,390.73s2.732,2.906,2.914,5.145l-14.944,7s-2.267-2.291,2.119-3.978l3.051-4.629-4.621-8.5a3.376,3.376,0,0,1,4.521-1.293l5.43-1.993Z" transform="translate(-796.853 -382.474)" fill="#024039"/>
              <path id="Path_11255" data-name="Path 11255" d="M803.088,385.262s2.307,7.661,2.412,8.715-.369,4.153-2.085,4.978a7.318,7.318,0,0,1-3.278.733l3.051-4.629-4.621-8.5A3.376,3.376,0,0,1,803.088,385.262Z" transform="translate(-797.433 -383.269)" fill="#024039"/>
            </g>
          </g>
        </g>
        <g id="Group_6266" data-name="Group 6266" transform="translate(0 14.6)">
          <g id="Group_6242" data-name="Group 6242" transform="translate(46.638 12.64)">
            <g id="Group_6241" data-name="Group 6241">
              <g id="Group_6240" data-name="Group 6240" transform="translate(8.311 17.054)">
                <g id="Group_6239" data-name="Group 6239">
                  <g id="Group_6238" data-name="Group 6238">
                    <path id="Path_11256" data-name="Path 11256" d="M793.878,252.94c-1.661.522-3.24,1.232-4.921,1.651-3.157-9.091-6.489-18.888-10.611-27.156-.94-1.886-1.856-3.649-2.757-5.334-1.277-2.4-2.529-4.638-3.795-6.865,2.694-1.091,5.334-2.319,7.975-3.542l2.635-1.213c.994,2.207,1.886,4.453,2.7,6.709.677,1.866,1.305,3.737,1.895,5.6A213.349,213.349,0,0,1,793.878,252.94Z" transform="translate(-771.794 -210.481)" fill="#d4774c"/>
                  </g>
                  <path id="Path_11257" data-name="Path 11257" d="M799.435,270.539a8.04,8.04,0,0,1,2.427,1.678c1.251,1.223,1.4,3.679,2.129,4.747s1.41,1.954,1.165,2.251-.68-.126-1.97-1.7c0,0-.805-.606-.44.308s1.782,2.8,1.342,3.273c-.356.384-2.187-2.571-2.4-2.617s1.484,3.879.775,4.427-1.432-4.164-1.952-4.222.381,3.275-.081,3.445c-1.011.371-1.341-5.1-1.792-4.982s-.8,2.142-1.412,2.021.183-2.193.149-2.61S796.469,271.327,799.435,270.539Z" transform="translate(-780.314 -230.79)" fill="#d4774c"/>
                </g>
                <path id="Path_11258" data-name="Path 11258" d="M785.109,217.19l-9.52,4.911c-1.277-2.4-2.529-4.638-3.795-6.865,2.694-1.091,5.334-2.319,7.975-3.542l2.635-1.213C783.4,212.688,784.29,214.934,785.109,217.19Z" transform="translate(-771.794 -210.481)" fill="#bf6237"/>
              </g>
              <path id="Path_11259" data-name="Path 11259" d="M780.131,204.413s-7.712,5.286-11.2,5.535l-9.685-17.66a15.338,15.338,0,0,1,.078-2.329,5.855,5.855,0,0,1,9.505-3.927l.1.087a17.542,17.542,0,0,1,2.67,3.289c2.68,3.941,5.925,9.987,7.527,13.061C779.756,203.667,780.131,204.413,780.131,204.413Z" transform="translate(-759.236 -184.713)" fill="#d99434"/>
            </g>
            <path id="Path_11260" data-name="Path 11260" d="M780.131,204.413s-7.712,5.286-11.2,5.535l-9.685-17.66a15.338,15.338,0,0,1,.078-2.329,5.855,5.855,0,0,1,9.505-3.927l.1.087a17.542,17.542,0,0,1,2.67,3.289q-.481,5.612-.964,11.23a4.574,4.574,0,0,0,.287,2.616,3.443,3.443,0,0,0,2.943,1.515,6.707,6.707,0,0,0,5.261-2.3C779.756,203.667,780.131,204.413,780.131,204.413Z" transform="translate(-759.236 -184.713)" fill="#d99434" opacity="0.5" style="mix-blend-mode: multiply;isolation: isolate"/>
          </g>
          <g id="Group_6247" data-name="Group 6247" transform="translate(34.454)">
            <g id="Group_6243" data-name="Group 6243" transform="translate(2.819)">
              <path id="Path_11261" data-name="Path 11261" d="M758.492,176.665V165.614h-7.346v11.6a8.918,8.918,0,0,0-4.419,3.5c-.595.908-1.146,1.672-1.639,2.383a18.663,18.663,0,0,0,2.134.872c.266-.032.52-.062.737-.084a18.932,18.932,0,0,0,6.236-1.592,11.576,11.576,0,0,0,4.033-2.913,2.2,2.2,0,0,1,.072-.316,12.08,12.08,0,0,1,1.065-2.312C759.067,176.718,758.776,176.689,758.492,176.665Z" transform="translate(-745.087 -165.614)" fill="#d4774c"/>
              <path id="Path_11262" data-name="Path 11262" d="M761.479,169.737a12.211,12.211,0,0,1-2.509,4.39,8.131,8.131,0,0,1-3.074,1.988,6.669,6.669,0,0,1-1.652.351v-1.929a6.094,6.094,0,0,0,2.48-.351,8.161,8.161,0,0,0,3.08-1.983A9.235,9.235,0,0,0,761.479,169.737Z" transform="translate(-748.183 -167.008)" fill="#bf6237"/>
            </g>
            <g id="Group_6246" data-name="Group 6246" transform="translate(0 10.895)">
              <path id="Path_11263" data-name="Path 11263" d="M779.538,264.727c-.512.132-1.418.341-2.616.609-6.441,1.422-21.354,4.414-29.372,4.818-.96.049-1.827.064-2.563.029l-.746-53.976s-.731-4.434-1.491-9c-.736-4.38-1.5-8.882-1.681-9.72-.375-1.71-.716-2.8,2.27-8.71s6.407-6.022,6.407-6.022c-2.592.526-5.4,5.169-5.4,5.169s5.992-1.656,8.214-3.975a5.783,5.783,0,0,1,4.911-1.832,6.835,6.835,0,0,1,4.657,3.137,9.038,9.038,0,0,1,1.223,6.544,74.085,74.085,0,0,0-.916,9.407c-.254,5.379-.171,10.241-.171,10.241,8.945,8.8,7.23,22.63,7.23,22.63Z" transform="translate(-740.827 -182.075)" fill="#f5ad49"/>
              <g id="Group_6245" data-name="Group 6245" transform="translate(14.216 19.669)">
                <g id="Group_6244" data-name="Group 6244">
                  <path id="Path_11264" data-name="Path 11264" d="M763.748,211.794c-.4,2.764-.737,5.538-.944,8.32-.108,1.39-.181,2.783-.183,4.174,0,.348,0,.7.017,1.042s.023.694.06,1.037l.045.517c.023.171.056.341.083.512.059.342.11.682.175,1.024,1.107,5.465,2.371,10.91,3.632,16.351l3.76,16.329,1.871,8.168,1.836,8.176c-1.406-5.407-2.747-10.83-4.072-16.257s-2.6-10.867-3.869-16.308l-1.831-8.178c-.585-2.733-1.206-5.456-1.694-8.213-.06-.345-.107-.7-.161-1.044-.025-.174-.056-.347-.076-.523l-.037-.527c-.032-.352-.039-.7-.044-1.054s-.01-.7,0-1.053c.026-1.4.116-2.8.252-4.192C762.854,217.311,763.242,214.542,763.748,211.794Z" transform="translate(-762.307 -211.794)" fill="#c2612d"/>
                </g>
              </g>
              <path id="Path_11265" data-name="Path 11265" d="M761.165,197.311l-5.715,17.519v0a58.246,58.246,0,0,0-7.917,31.38l1,28.332c-.96.049-1.827.064-2.563.029l-.746-53.976s-.731-4.434-1.491-9L758.9,195.06Z" transform="translate(-741.81 -186.466)" fill="#f5ad49" opacity="0.5" style="mix-blend-mode: screen;isolation: isolate"/>
              <path id="Path_11266" data-name="Path 11266" d="M789.427,274.5c-.512.132-1.418.341-2.616.609L776.726,243.58c2.2-9.768-6.655-20.812-6.655-20.812l2.251-11.785c-.253,5.379-.171,10.241-.171,10.241,8.945,8.8,7.23,22.63,7.23,22.63Z" transform="translate(-750.716 -191.85)" fill="#f5ad49" opacity="0.5" style="mix-blend-mode: multiply;isolation: isolate"/>
            </g>
          </g>
          <g id="Group_6265" data-name="Group 6265" transform="translate(0 14.046)">
            <g id="Group_6259" data-name="Group 6259" transform="translate(0 2.659)">
              <g id="Group_6257" data-name="Group 6257">
                <g id="Group_6250" data-name="Group 6250" transform="translate(0 0.043)">
                  <path id="Path_11267" data-name="Path 11267" d="M698.022,202.979a9.029,9.029,0,0,0-3.5,1.373c-2.061-3.675-4.056-7.3-5.757-11.185,1.773-.772,3.587-1.443,5.346-2.248C695.9,195.069,697.752,198.381,698.022,202.979Z" transform="translate(-688.769 -190.919)" fill="#67b38b"/>
                  <path id="Path_11268" data-name="Path 11268" d="M695.028,203.581c-2.023-2.691-3.135-6.03-4.608-9.039a.532.532,0,0,0,.265-.682c1.061-.428,2.127-.843,3.177-1.3a.537.537,0,0,0,.684.266c1.488,3.084,3.252,6.052,3.406,9.556a.575.575,0,0,0-.426.593,3.588,3.588,0,0,0-1.892.805A.448.448,0,0,0,695.028,203.581Z" transform="translate(-689.327 -191.475)" fill="#80d4a9"/>
                  <path id="Path_11269" data-name="Path 11269" d="M697.678,199.609A1.9,1.9,0,0,1,694.2,201.1a1.846,1.846,0,0,1,.958-2.474A1.9,1.9,0,0,1,697.678,199.609Z" transform="translate(-690.549 -193.468)" fill="#67b38b"/>
                  <g id="Group_6249" data-name="Group 6249" transform="translate(3.908 5.791)">
                    <g id="Group_6248" data-name="Group 6248">
                      <path id="Path_11270" data-name="Path 11270" d="M697.153,200.124c.12-.045.226-.093.34-.14.042.1.085.2.126.294l-.327.136a1.486,1.486,0,0,1,.056.823c-.143,0-.285-.008-.428-.007a1.27,1.27,0,0,0-.021-.649c-.164.073-.335.144-.5.218.024.4.1.724-.36.932a.726.726,0,0,1-.9-.383c-.12.044-.228.091-.344.136-.04-.1-.082-.2-.123-.293l.336-.132a1.767,1.767,0,0,1-.082-.685h.444a1.672,1.672,0,0,0,.045.525c.17-.07.345-.138.506-.222-.022-.392-.147-.744.31-.959A.757.757,0,0,1,697.153,200.124Zm-1.179.876q-.215.09-.428.183a.256.256,0,0,0,.306.11C695.976,201.238,695.972,201.116,695.974,201Zm.494-.82c-.122.056-.117.18-.117.3q.207-.088.411-.181C696.685,200.2,696.59,200.124,696.468,200.18Z" transform="translate(-694.674 -199.669)" fill="#80d4a9"/>
                    </g>
                  </g>
                </g>
                <g id="Group_6253" data-name="Group 6253" transform="translate(2.839 0.009)">
                  <path id="Path_11271" data-name="Path 11271" d="M699.327,203.535a9.025,9.025,0,0,0-3.737.381c-.995-4.095-1.939-8.125-2.531-12.322,1.916-.266,3.843-.424,5.754-.725C699.413,195.346,700.306,199.034,699.327,203.535Z" transform="translate(-693.059 -190.868)" fill="#67b38b"/>
                  <path id="Path_11272" data-name="Path 11272" d="M696.319,203.046c-1.223-3.136-1.394-6.651-2-9.946a.532.532,0,0,0,.44-.584c1.137-.126,2.275-.24,3.408-.393a.537.537,0,0,0,.588.441c.6,3.371,1.5,6.7.7,10.12a.576.576,0,0,0-.57.457,3.585,3.585,0,0,0-2.038.266A.449.449,0,0,0,696.319,203.046Z" transform="translate(-693.484 -191.292)" fill="#80d4a9"/>
                  <path id="Path_11273" data-name="Path 11273" d="M699.921,199.687a1.9,1.9,0,0,1-3.755.492,1.846,1.846,0,0,1,1.59-2.124A1.9,1.9,0,0,1,699.921,199.687Z" transform="translate(-694.104 -193.292)" fill="#67b38b"/>
                  <g id="Group_6252" data-name="Group 6252" transform="translate(2.399 5.651)">
                    <g id="Group_6251" data-name="Group 6251">
                      <path id="Path_11274" data-name="Path 11274" d="M699.359,200.052c.128-.011.242-.029.365-.042.014.105.03.211.042.316l-.352.043a1.485,1.485,0,0,1-.167.808c-.136-.042-.273-.085-.41-.122a1.274,1.274,0,0,0,.155-.631c-.178.027-.361.049-.536.077-.085.394-.1.723-.6.8a.726.726,0,0,1-.767-.612c-.128.009-.244.026-.368.038-.013-.105-.026-.21-.04-.315l.359-.037a1.779,1.779,0,0,1,.106-.681l.427.119a1.666,1.666,0,0,0-.1.518c.183-.021.37-.04.547-.077.085-.383.059-.756.557-.84A.758.758,0,0,1,699.359,200.052Zm-1.371.526c-.155.019-.308.039-.462.06.052.115.131.207.265.188S697.954,200.689,697.988,200.578Zm.7-.657c-.132.021-.161.142-.193.253.149-.02.3-.04.445-.063C698.887,200,698.816,199.9,698.684,199.92Z" transform="translate(-696.684 -199.407)" fill="#80d4a9"/>
                    </g>
                  </g>
                </g>
                <g id="Group_6256" data-name="Group 6256" transform="translate(5.111)">
                  <path id="Path_11275" data-name="Path 11275" d="M700.192,204.042a9.038,9.038,0,0,0-3.7-.64c.146-4.211.322-8.347.883-12.548,1.917.26,3.815.627,5.736.852C702.481,196.18,702.348,199.972,700.192,204.042Z" transform="translate(-696.491 -190.854)" fill="#67b38b"/>
                  <path id="Path_11276" data-name="Path 11276" d="M697.419,202.658c-.333-3.35.449-6.781.751-10.118a.532.532,0,0,0,.58-.445c1.129.185,2.256.383,3.389.54a.537.537,0,0,0,.447.582c-.328,3.408-.36,6.861-2.048,9.936a.575.575,0,0,0-.672.287,3.581,3.581,0,0,0-2.035-.294C697.814,202.88,697.7,202.684,697.419,202.658Z" transform="translate(-696.777 -191.274)" fill="#80d4a9"/>
                  <path id="Path_11277" data-name="Path 11277" d="M702.056,200.361a1.9,1.9,0,0,1-3.748-.537,1.846,1.846,0,0,1,2.1-1.618A1.9,1.9,0,0,1,702.056,200.361Z" transform="translate(-697.099 -193.334)" fill="#67b38b"/>
                  <g id="Group_6255" data-name="Group 6255" transform="translate(1.548 5.793)">
                    <g id="Group_6254" data-name="Group 6254">
                      <path id="Path_11278" data-name="Path 11278" d="M701.55,200.546c.126.024.242.037.363.057-.015.106-.028.212-.044.317l-.35-.054a1.485,1.485,0,0,1-.379.733c-.12-.078-.24-.155-.363-.228a1.271,1.271,0,0,0,.319-.565c-.179-.023-.361-.05-.537-.071-.189.357-.294.668-.792.61a.726.726,0,0,1-.574-.8c-.126-.025-.242-.041-.365-.062.016-.1.032-.21.047-.314l.355.062a1.769,1.769,0,0,1,.287-.627l.379.23a1.669,1.669,0,0,0-.234.473c.182.028.367.062.548.072.185-.346.26-.712.762-.659A.756.756,0,0,1,701.55,200.546Zm-1.462.137q-.231-.035-.461-.067c.02.124.071.235.205.253S700.026,200.782,700.088,200.683Zm.848-.445c-.133-.016-.193.094-.254.193q.223.032.445.059C701.109,200.371,701.069,200.254,700.936,200.238Z" transform="translate(-698.83 -199.607)" fill="#80d4a9"/>
                    </g>
                  </g>
                </g>
              </g>
              <g id="Group_6258" data-name="Group 6258" transform="translate(3.07 8.532)">
                <path id="Path_11279" data-name="Path 11279" d="M737.75,213.182c-1,1.389-2.051,2.748-3.142,4.073-.078.1-.165.205-.249.307-1.052,1.277-2.869,3.279-4.467,5a6.456,6.456,0,0,1-7.405,1.506c-1.68-.76-3.5-1.593-4.7-2.178a105.384,105.384,0,0,1-9.417-5.349c-3.084-1.92-6.144-3.922-9.3-5.818-.9-.512-2.193-1.34-2.193-1.34a1.216,1.216,0,0,1-.955-1.174c-.721-.034-.7-.809-.7-.809a.884.884,0,0,1-.555-1.276s1.242.492,1.281.345-3.2-2.173-2.421-2.451,4.233,1.774,5.544,1.881a1.382,1.382,0,0,0,1.534-1.091l.283-1.067a2.57,2.57,0,0,1,.726.9,7.741,7.741,0,0,1-.136,2.246c6.957,2.714,14.285,5.588,21.378,7.742.9-1.35,1.744-2.665,2.572-3.961,1.111-1.739,2.178-3.454,3.26-5.193.935.892,1.9,1.759,2.874,2.612Q734.58,210.729,737.75,213.182Z" transform="translate(-693.408 -203.746)" fill="#d4774c"/>
                <path id="Path_11280" data-name="Path 11280" d="M754.11,214.068c-1,1.389-2.051,2.748-3.142,4.073-4.253-.945-7.43-4.287-9.179-6.582,1.111-1.739,2.178-3.454,3.26-5.193.935.892,1.9,1.759,2.874,2.612Q750.941,211.615,754.11,214.068Z" transform="translate(-709.768 -204.632)" fill="#bf6237"/>
              </g>
            </g>
            <g id="Group_6264" data-name="Group 6264" transform="translate(36.242)">
              <path id="Path_11281" data-name="Path 11281" d="M743.633,201.617l9.64-14.088s7.637-3.483,9.509,5.162l-8.811,16.544A16.038,16.038,0,0,1,743.633,201.617Z" transform="translate(-743.563 -186.836)" fill="#f5ad49"/>
              <g id="Group_6263" data-name="Group 6263" transform="translate(0 3.398)">
                <g id="Group_6262" data-name="Group 6262">
                  <g id="Group_6260" data-name="Group 6260">
                    <path id="Path_11282" data-name="Path 11282" d="M744.059,204.028c-.172-.212-.344-.425-.509-.642l-.022-.029.022-.037c.609-.995,1.264-1.958,1.9-2.933q.982-1.444,2-2.865c.68-.945,1.362-1.889,2.075-2.811s1.42-1.848,2.171-2.741c-.6,1-1.233,1.98-1.878,2.95s-1.305,1.929-1.975,2.882-1.357,1.892-2.053,2.826c-.711.923-1.407,1.858-2.146,2.76v-.066C743.787,203.554,743.923,203.79,744.059,204.028Z" transform="translate(-743.528 -191.97)" fill="#c2612d"/>
                  </g>
                  <g id="Group_6261" data-name="Group 6261" transform="translate(9.857 3.419)">
                    <path id="Path_11283" data-name="Path 11283" d="M758.421,212.718c.294.134.589.267.879.408l-.074.023c.594-1.372,1.236-2.721,1.863-4.077q.966-2.022,1.968-4.025c.672-1.334,1.346-2.667,2.054-3.982s1.41-2.635,2.161-3.929c-.581,1.379-1.2,2.737-1.838,4.09s-1.284,2.7-1.944,4.037-1.342,2.669-2.031,3.994c-.706,1.317-1.4,2.641-2.135,3.942l-.029.05-.046-.027C758.97,213.059,758.7,212.888,758.421,212.718Z" transform="translate(-758.421 -197.136)" fill="#c2612d"/>
                  </g>
                </g>
              </g>
            </g>
          </g>
        </g>
        <g id="Group_6283" data-name="Group 6283" transform="translate(34.565)">
          <g id="Group_6281" data-name="Group 6281" transform="translate(0 1.265)">
            <path id="Path_11284" data-name="Path 11284" d="M741.027,157.846a5.969,5.969,0,0,1,1.02-1.79,5.794,5.794,0,0,0,.655-1.119,26.508,26.508,0,0,1,1.5-7.3c.713-1.406,4.552-2.673,8.328-1.964,3.78.683,6.91,3.237,7.076,4.806.063.6.345,2.975-1.671,8.824a12.758,12.758,0,0,1-2.618,4.693,8.2,8.2,0,0,1-3.075,1.986,5.631,5.631,0,0,1-3.134.254l-.719-.132a5.9,5.9,0,0,1-3.377-1.86,8.627,8.627,0,0,1-1.624-2.447,9,9,0,0,1-.654-2.551,2.354,2.354,0,0,1-1.437-.507A.854.854,0,0,1,741.027,157.846Z" transform="translate(-740.995 -145.466)" fill="#d4774c"/>
            <g id="Group_6280" data-name="Group 6280" transform="translate(2.207 7.016)">
              <g id="Group_6279" data-name="Group 6279">
                <g id="Group_6269" data-name="Group 6269" transform="translate(9.716 3.029)">
                  <g id="Group_6267" data-name="Group 6267">
                    <path id="Path_11285" data-name="Path 11285" d="M761.294,162.771a2.162,2.162,0,0,0,.125-.731,1.648,1.648,0,0,0-.08-.688.671.671,0,0,0-1.033-.2,2.574,2.574,0,0,0-.919,1.03,4.969,4.969,0,0,0-.294,1.439,3.19,3.19,0,0,1,.026-1.543,2.467,2.467,0,0,1,1-1.244,1.2,1.2,0,0,1,.848-.169.833.833,0,0,1,.647.594,1.618,1.618,0,0,1-.013.807A1.8,1.8,0,0,1,761.294,162.771Z" transform="translate(-759.01 -160.644)" fill="#bf6237"/>
                  </g>
                  <g id="Group_6268" data-name="Group 6268" transform="translate(0.558 0.946)">
                    <path id="Path_11286" data-name="Path 11286" d="M760.32,164.248a1.913,1.913,0,0,0,.193-.629,3.035,3.035,0,0,0,.018-.628,1.1,1.1,0,0,0-.16-.544.635.635,0,0,0-.516-.286.6.6,0,0,1,.727.089,1.055,1.055,0,0,1,.318.713,1.721,1.721,0,0,1-.109.731A1.02,1.02,0,0,1,760.32,164.248Z" transform="translate(-759.854 -162.074)" fill="#bf6237"/>
                  </g>
                </g>
                <g id="Group_6272" data-name="Group 6272" transform="translate(0 6.402)">
                  <g id="Group_6270" data-name="Group 6270" transform="translate(1.516 1.582)">
                    <path id="Path_11287" data-name="Path 11287" d="M747.692,168.132a1.108,1.108,0,0,1-1.072.5c.182-.109.36-.171.531-.261C747.329,168.3,747.492,168.2,747.692,168.132Z" transform="translate(-746.62 -168.132)" fill="#bf6237"/>
                  </g>
                  <g id="Group_6271" data-name="Group 6271">
                    <path id="Path_11288" data-name="Path 11288" d="M747.4,165.741a2.588,2.588,0,0,1-1.211,1.428,2.455,2.455,0,0,1-.914.3,2.251,2.251,0,0,1-.943-.071,5.069,5.069,0,0,0,1.677-.555A6.04,6.04,0,0,0,747.4,165.741Z" transform="translate(-744.33 -165.741)" fill="#bf6237"/>
                  </g>
                </g>
                <g id="Group_6274" data-name="Group 6274" transform="translate(0.58 6.263)">
                  <g id="Group_6273" data-name="Group 6273">
                    <path id="Path_11289" data-name="Path 11289" d="M745.713,165.591a.411.411,0,0,1-.164.3.406.406,0,0,1-.339.025.327.327,0,0,1,.14-.336A.331.331,0,0,1,745.713,165.591Z" transform="translate(-745.206 -165.53)" fill="#bf6237"/>
                  </g>
                </g>
                <g id="Group_6276" data-name="Group 6276" transform="translate(1.2 2.538)">
                  <g id="Group_6275" data-name="Group 6275">
                    <path id="Path_11290" data-name="Path 11290" d="M746.723,161.005c0,.529.32.958.715.958s.716-.429.716-.958-.32-.957-.716-.957S746.723,160.477,746.723,161.005Z" transform="translate(-746.339 -159.952)" fill="#5e2b13"/>
                    <path id="Path_11291" data-name="Path 11291" d="M746.143,159.9s.079.365,1.073.385" transform="translate(-746.143 -159.903)" fill="none" stroke="#5e2b13" stroke-linecap="round" stroke-linejoin="round" stroke-width="0.871"/>
                  </g>
                </g>
                <g id="Group_6278" data-name="Group 6278" transform="translate(0.65)">
                  <g id="Group_6277" data-name="Group 6277">
                    <path id="Path_11292" data-name="Path 11292" d="M746.068,156.874a6.46,6.46,0,0,1,.8-.028,5.991,5.991,0,0,1,.819.069,5.032,5.032,0,0,1,.807.2,7,7,0,0,1,.79.323l.012.005a.186.186,0,0,0,.2-.306,3.637,3.637,0,0,0-.766-.557,3.88,3.88,0,0,0-.89-.362,3.761,3.761,0,0,0-.955-.147,3.276,3.276,0,0,0-.983.117.354.354,0,0,0,.128.692Z" transform="translate(-745.424 -156.068)" fill="#5e2b13"/>
                    <path id="Path_11293" data-name="Path 11293" d="M745.324,156.329a.433.433,0,0,0,.12.406.864.864,0,0,0,.369.206l.01,0a.189.189,0,1,0,.11-.361.209.209,0,0,0-.069-.008.577.577,0,0,1-.27-.032.265.265,0,0,1-.1-.075.268.268,0,0,1-.053-.121l0-.013a.058.058,0,0,0-.067-.049A.059.059,0,0,0,745.324,156.329Z" transform="translate(-745.312 -156.141)" fill="#5e2b13"/>
                  </g>
                </g>
              </g>
              <circle id="Ellipse_141" data-name="Ellipse 141" cx="3.276" cy="3.276" r="3.276" transform="translate(3.325 5.89)" fill="#d46c46"/>
            </g>
          </g>
          <g id="Group_6282" data-name="Group 6282" transform="translate(1.43)">
            <path id="Path_11294" data-name="Path 11294" d="M749.8,174.813a5.893,5.893,0,0,1-3.377-1.861,8.139,8.139,0,0,1-1.257-1.719,37.6,37.6,0,0,0,3.674,8.848,5.146,5.146,0,0,1,2.333-.985v-4.053a3.523,3.523,0,0,1-.653-.1Z" transform="translate(-743.836 -152.914)" fill="#1a223b"/>
            <path id="Path_11295" data-name="Path 11295" d="M768.146,169.94c-1.885-2.154-4.146-4.117-5.193-6.782-1.549-3.956-.093-8.545-1.33-12.609a10,10,0,0,0-6.27-6.455,11.539,11.539,0,0,0-5.944-.283,7.88,7.88,0,0,0-4.872,2.733c-1.218,1.647-1.4,3.825-1.379,5.871.009.745.038,1.5.1,2.241a2.835,2.835,0,0,0,.175-.365,34.8,34.8,0,0,1,.527-3.78,9.033,9.033,0,0,0,6.773-.815,5.148,5.148,0,0,0,1.878,6.4,6.208,6.208,0,0,1,1.774-1.579,2.026,2.026,0,0,1,2.19.334,1.975,1.975,0,0,1,.209,2.154,4.821,4.821,0,0,1-1.535,1.682,5.147,5.147,0,0,0,1.164,2.825,5.029,5.029,0,0,0,1.425,1.177v6.366a3.184,3.184,0,0,1,.419.039,6.7,6.7,0,0,1,4.029,2.3,5.777,5.777,0,0,1,1.11.721l.1.087c1.481,1.248,3.786,4.843,5.915,8.526a6.123,6.123,0,0,0,1.69-3.044C771.688,174.876,770.036,172.1,768.146,169.94Z" transform="translate(-743.156 -143.554)" fill="#1a223b"/>
          </g>
        </g>
      </g>
      <g id="Group_6321" data-name="Group 6321" transform="translate(604.871 143.973)">
        <g id="Group_6290" data-name="Group 6290" transform="translate(2.67 65.615)">
          <g id="Group_6287" data-name="Group 6287" transform="translate(13.537 0.001)">
            <g id="Group_6285" data-name="Group 6285">
              <path id="Path_11296" data-name="Path 11296" d="M663.884,350.466H652.6L631.057,287.39l.994-39.769,13.641-4.292,4.546,26.781Z" transform="translate(-631.057 -243.328)" fill="#00b795"/>
              <path id="Path_11297" data-name="Path 11297" d="M655.538,350.467H652.6L631.057,287.39l.994-39.77,13.641-4.292,4.546,26.781h0a82.176,82.176,0,0,0-2.494,54.457Z" transform="translate(-631.057 -243.328)" fill="#1c2540" opacity="0.5" style="mix-blend-mode: multiply;isolation: isolate"/>
            </g>
            <g id="Group_6286" data-name="Group 6286" transform="translate(21.686 107.141)">
              <path id="Path_11298" data-name="Path 11298" d="M664.486,406.04a5.971,5.971,0,0,0,0,5.533h18.13s.59-1.024,0-1.553-6.589-.693-9.266-4.809h-8.988Z" transform="translate(-663.823 -405.211)" fill="#024039"/>
              <rect id="Rectangle_2318" data-name="Rectangle 2318" width="18.693" height="0.726" transform="translate(0.363 6.012)" fill="#024039"/>
            </g>
          </g>
          <g id="Group_6289" data-name="Group 6289">
            <path id="Path_11299" data-name="Path 11299" d="M614.086,244.447s-1.907,7.5-.518,13.263l.456,45.231-3.42,47.527h10.634L635.6,258.441l3.173-15.114Z" transform="translate(-610.604 -243.327)" fill="#00b795"/>
            <g id="Group_6288" data-name="Group 6288" transform="translate(0.331 107.141)">
              <path id="Path_11300" data-name="Path 11300" d="M611.767,406.04a5.971,5.971,0,0,0,0,5.533H629.9s.591-1.024,0-1.553-6.589-.693-9.265-4.809h-8.989Z" transform="translate(-611.104 -405.211)" fill="#024039"/>
              <rect id="Rectangle_2319" data-name="Rectangle 2319" width="18.693" height="0.726" transform="translate(0.363 6.012)" fill="#024039"/>
            </g>
          </g>
        </g>
        <g id="Group_6307" data-name="Group 6307" transform="translate(0 14.927)">
          <g id="Group_6294" data-name="Group 6294" transform="translate(5.634)">
            <g id="Group_6291" data-name="Group 6291" transform="translate(9.732)">
              <path id="Path_11301" data-name="Path 11301" d="M633.039,181.328c1.9,1.6,4.473,3.843,7.032,4.22a3.453,3.453,0,0,0,3.079-.938c.066-.174.135-.348.2-.522-.353-.533-.726-1.1-1.118-1.73-1.051-1.693-1.921-3.012-3.325-3.776v-11.84h-7.015v10.99c-.661.038-1.365.1-2.105.193A22.749,22.749,0,0,0,633.039,181.328Z" transform="translate(-629.787 -166.741)" fill="#ebaf7f"/>
              <path id="Path_11302" data-name="Path 11302" d="M640.945,177.13V179.1a6.327,6.327,0,0,1-.784-.224,8.231,8.231,0,0,1-4.34-3.673,7.918,7.918,0,0,0,2.645,1.579A6.093,6.093,0,0,0,640.945,177.13Z" transform="translate(-631.827 -169.602)" fill="#e48855"/>
            </g>
            <g id="Group_6293" data-name="Group 6293" transform="translate(0 7.752)">
              <path id="Path_11303" data-name="Path 11303" d="M641.216,216.526c-.321,4.531-.594,7.936-.594,7.936s-2.5.517-6.285.891c-.165.015-.331.034-.5.049-5.091.473-12.267.653-18.752-.94l3.357-14.056,1.106-10.065,1.8-16.389a14.885,14.885,0,0,1,5.579-.711s5.432,4.428,6.991,4.053c0,0,.015,0,.019,0a.857.857,0,0,0,.449-.268c.472-.531.126-1.608-.161-2.285-.151-.351-.288-.594-.288-.594s.1.02.249.068a3.616,3.616,0,0,1,1.388.682,111.658,111.658,0,0,1,6.421,9.384C642.59,195.416,641.82,207.971,641.216,216.526Z" transform="translate(-615.083 -180.055)" fill="#ff4846"/>
              <path id="Path_11304" data-name="Path 11304" d="M632.559,181.834s-.373-3.348.031-3.379,5.971,2.3,6.375,3.133a29.381,29.381,0,0,1,1,4.032S638.26,186.862,632.559,181.834Z" transform="translate(-620.939 -178.455)" fill="#ff814f"/>
              <path id="Path_11305" data-name="Path 11305" d="M643.72,186.511l-.216-4.19.039-1.231a6.154,6.154,0,0,1,2.037,1.075c.4.529.271,2.868.271,2.868A2.028,2.028,0,0,1,643.72,186.511Z" transform="translate(-624.694 -179.346)" fill="#ff814f"/>
              <g id="Group_6292" data-name="Group 6292" transform="translate(18.752 6.967)">
                <path id="Path_11306" data-name="Path 11306" d="M643.918,227.313c-.165.015-.331.034-.5.049,1.739-9.388.6-30.2.078-38.108,0,0,.015,0,.019,0a.857.857,0,0,0,.449-.268C644.474,196.678,645.648,217.7,643.918,227.313Z" transform="translate(-643.416 -188.981)" fill="#ff814f"/>
              </g>
              <path id="Path_11307" data-name="Path 11307" d="M641.216,224.823c-.321,4.531-.594,7.936-.594,7.936s-2.5.517-6.285.891c-.165.015-.331.034-.5.049-5.091.473-12.267.653-18.752-.94L618.44,218.7l1.106-10.065a16.06,16.06,0,0,1,4.317-.916,17.89,17.89,0,0,0,17.353,17.1Z" transform="translate(-615.083 -188.352)" fill="#871a1a" opacity="0.5" style="mix-blend-mode: multiply;isolation: isolate"/>
            </g>
          </g>
          <g id="Group_6306" data-name="Group 6306" transform="translate(0 11.344)">
            <g id="Group_6299" data-name="Group 6299" transform="translate(23.859 25.502)">
              <path id="Path_11308" data-name="Path 11308" d="M678.648,222.413v2.412H642.62l5.844-1.971,1.307-.442Z" transform="translate(-642.62 -222.413)" fill="#c7762f"/>
              <g id="Group_6297" data-name="Group 6297" transform="translate(0 2.412)">
                <rect id="Rectangle_2320" data-name="Rectangle 2320" width="31.286" height="29.831" transform="translate(0)" fill="#f5ad49"/>
                <g id="Group_6296" data-name="Group 6296" transform="translate(1.413 23.008)">
                  <g id="Group_6295" data-name="Group 6295">
                    <rect id="Rectangle_2321" data-name="Rectangle 2321" width="13.147" height="1.831" transform="translate(0 2.122)" fill="#c7762f"/>
                    <rect id="Rectangle_2322" data-name="Rectangle 2322" width="8.82" height="1.331" fill="#c7762f"/>
                  </g>
                </g>
                <path id="Path_11309" data-name="Path 11309" d="M683.8,231.342a2.392,2.392,0,1,1-2.392-2.393A2.392,2.392,0,0,1,683.8,231.342Z" transform="translate(-654.928 -227.035)" fill="#c7762f"/>
                <rect id="Rectangle_2323" data-name="Rectangle 2323" width="1.413" height="29.831" transform="translate(1.413 29.831) rotate(180)" fill="#f5ad49" opacity="0.5" style="mix-blend-mode: screen;isolation: isolate"/>
              </g>
              <g id="Group_6298" data-name="Group 6298" transform="translate(31.286 0)">
                <path id="Path_11310" data-name="Path 11310" d="M694.633,222.413v29.5l-4.742,2.746V224.825l1.267-.643Z" transform="translate(-689.891 -222.413)" fill="#e38c3b"/>
                <path id="Path_11311" data-name="Path 11311" d="M694.633,247.284v5.532l-4.742,2.746V225.73l1.267-.643a96.436,96.436,0,0,0,.592,13.586,21.422,21.422,0,0,0,1.432,6.231A10.145,10.145,0,0,0,694.633,247.284Z" transform="translate(-689.891 -223.317)" fill="#e38c3b" opacity="0.5" style="mix-blend-mode: multiply;isolation: isolate"/>
              </g>
              <path id="Path_11312" data-name="Path 11312" d="M681.633,222.413v.334a123.193,123.193,0,0,1-30.185.107l1.307-.441Z" transform="translate(-645.606 -222.413)" fill="#c7762f" opacity="0.5" style="mix-blend-mode: multiply;isolation: isolate"/>
            </g>
            <g id="Group_6305" data-name="Group 6305">
              <path id="Path_11313" data-name="Path 11313" d="M644.651,262.853s2.454.185,2.6-.167-2.294-1.138-2.294-1.138l-2.119-1.4c-1.414-1.686-2.851-3.4-4.287-5.128-.1.065-.191.13-.289.194a29.69,29.69,0,0,1-3.5,2.478c-.446.412-.9.821-1.373,1.221q2.746,2.436,5.6,4.848c.649.929,2.209,2.784,2.209,2.784a5.176,5.176,0,0,0,1.642.037,6.989,6.989,0,0,0,1.711-.154,1.614,1.614,0,0,0,1.283-.426,3.731,3.731,0,0,0,2.994-.373H647.41Z" transform="translate(-615.64 -207.938)" fill="#ebaf7f"/>
              <g id="Group_6304" data-name="Group 6304">
                <path id="Path_11314" data-name="Path 11314" d="M633.68,234.358l-1.052.877-3.722,3.089-.882.731s-20.4-18.192-21.271-21.305c-.365-1.291-.132-3.814.258-6.319a67.506,67.506,0,0,1,2.772-11.1c1.6-4.726,4.272-12.126,6.114-14.445.083-.107.165-.2.244-.287.1-.1.2-.2.307-.293,3.849-3.459,9.919-.146,9.451,5a7.412,7.412,0,0,1-.345,1.759l-.482,1.51-.015.034-1.1,3.42-5.33,18.236Z" transform="translate(-606.57 -183.881)" fill="#ff4846"/>
                <path id="Path_11315" data-name="Path 11315" d="M637.85,239.328l-1.052.877-17.232-20.574,1.33-.911-1.993-3.162,3.318,1.208,7.006-18.187-1.1,3.42-5.33,18.236Z" transform="translate(-610.741 -188.852)" fill="#871a1a" opacity="0.5" style="mix-blend-mode: multiply;isolation: isolate"/>
                <path id="Path_11316" data-name="Path 11316" d="M628.905,239.347l-.882.731s-20.4-18.192-21.271-21.305c-.365-1.291-.132-3.814.258-6.319a67.507,67.507,0,0,1,2.772-11.1c1.6-4.726,4.272-12.126,6.114-14.445-1.758,5.447-9.184,28.715-8.4,31.312C608.307,220.886,625.748,236.53,628.905,239.347Z" transform="translate(-606.57 -184.904)" fill="#ff7a46" opacity="0.5" style="mix-blend-mode: screen;isolation: isolate"/>
                <g id="Group_6303" data-name="Group 6303" transform="translate(10.816 9.696)">
                  <g id="Group_6302" data-name="Group 6302">
                    <g id="Group_6300" data-name="Group 6300" transform="translate(0 20.174)">
                      <path id="Path_11317" data-name="Path 11317" d="M632.6,241.231c-.886-.956-1.729-1.945-2.567-2.939s-1.654-2-2.465-3.019-1.6-2.044-2.377-3.089l-1.157-1.569c-.372-.534-.757-1.058-1.117-1.6.447.475.869.97,1.3,1.453l1.264,1.485c.841.991,1.653,2,2.464,3.019s1.6,2.044,2.376,3.09S631.868,240.15,632.6,241.231Z" transform="translate(-622.913 -229.012)" fill="#911b1a"/>
                    </g>
                    <g id="Group_6301" data-name="Group 6301" transform="translate(1.369)">
                      <path id="Path_11318" data-name="Path 11318" d="M631.3,198.531c-.43,1.833-.911,3.652-1.4,5.469s-1.017,3.621-1.524,5.432c-.545,1.8-1.069,3.606-1.632,5.4l-.855,2.689c-.3.891-.588,1.788-.9,2.675.21-.919.45-1.828.674-2.742l.724-2.727c.489-1.816,1.017-3.622,1.525-5.432.546-1.8,1.068-3.606,1.633-5.4S630.673,200.308,631.3,198.531Z" transform="translate(-624.981 -198.531)" fill="#911b1a"/>
                    </g>
                  </g>
                </g>
              </g>
            </g>
          </g>
        </g>
        <g id="Group_6320" data-name="Group 6320" transform="translate(14.144 0)">
          <g id="Group_6318" data-name="Group 6318" transform="translate(0.444 1.593)">
            <g id="Group_6317" data-name="Group 6317">
              <path id="Path_11319" data-name="Path 11319" d="M647.245,158.973a5.979,5.979,0,0,0-1.02-1.79,5.767,5.767,0,0,1-.655-1.118,26.5,26.5,0,0,0-1.5-7.3c-.713-1.406-4.552-2.672-8.328-1.964-3.78.683-6.91,3.237-7.076,4.806-.062.6-.344,2.976,1.672,8.824a12.76,12.76,0,0,0,2.618,4.694,8.189,8.189,0,0,0,3.075,1.986,5.629,5.629,0,0,0,3.135.255l.719-.133a5.892,5.892,0,0,0,3.377-1.86,8.624,8.624,0,0,0,1.624-2.447,9.021,9.021,0,0,0,.655-2.551,2.353,2.353,0,0,0,1.437-.507A.856.856,0,0,0,647.245,158.973Z" transform="translate(-628.612 -146.594)" fill="#ebaf7f"/>
              <g id="Group_6316" data-name="Group 6316" transform="translate(4.217 7.016)">
                <g id="Group_6315" data-name="Group 6315">
                  <g id="Group_6308" data-name="Group 6308" transform="translate(0 3.206)">
                    <path id="Path_11320" data-name="Path 11320" d="M635.224,163.99a1.914,1.914,0,0,1-.211-.7,1.19,1.19,0,0,1,.224-1.072.817.817,0,0,1,.761-.146,1.642,1.642,0,0,1,.678.427,2.414,2.414,0,0,1,.566.79,3.737,3.737,0,0,1,.183,1.548" transform="translate(-634.983 -162.04)" fill="none" stroke="#e48855" stroke-miterlimit="10" stroke-width="0.558"/>
                    <path id="Path_11321" data-name="Path 11321" d="M637.046,165.407a1.53,1.53,0,0,1-.4-1.069,1.257,1.257,0,0,1,.181-.754.623.623,0,0,1,.684-.264" transform="translate(-635.545 -162.464)" fill="none" stroke="#e48855" stroke-miterlimit="10" stroke-width="0.558"/>
                  </g>
                  <g id="Group_6309" data-name="Group 6309" transform="translate(9.172 6.402)">
                    <path id="Path_11322" data-name="Path 11322" d="M649.568,169.26a2.259,2.259,0,0,0,1.072.5" transform="translate(-649.087 -167.678)" fill="none" stroke="#e48855" stroke-linecap="round" stroke-linejoin="round" stroke-width="0.279"/>
                    <path id="Path_11323" data-name="Path 11323" d="M648.842,166.869a3.367,3.367,0,0,0,3.068,1.661" transform="translate(-648.842 -166.869)" fill="none" stroke="#e48855" stroke-linecap="round" stroke-linejoin="round" stroke-width="0.558"/>
                  </g>
                  <g id="Group_6310" data-name="Group 6310" transform="translate(11.154 6.323)">
                    <path id="Path_11324" data-name="Path 11324" d="M651.836,166.75a2.014,2.014,0,0,1,.5.322" transform="translate(-651.836 -166.75)" fill="none" stroke="#e48855" stroke-linecap="round" stroke-linejoin="round" stroke-width="0.558"/>
                  </g>
                  <g id="Group_6312" data-name="Group 6312" transform="translate(9.226 2.634)">
                    <g id="Group_6311" data-name="Group 6311">
                      <path id="Path_11325" data-name="Path 11325" d="M650.354,162.133c0,.529-.32.957-.715.957s-.715-.428-.715-.957.32-.957.715-.957S650.354,161.6,650.354,162.133Z" transform="translate(-648.923 -161.176)" fill="#5e2b13"/>
                    </g>
                  </g>
                  <g id="Group_6314" data-name="Group 6314" transform="translate(7.461)">
                    <g id="Group_6313" data-name="Group 6313">
                      <path id="Path_11326" data-name="Path 11326" d="M649.743,158a6.6,6.6,0,0,0-.8-.028,6.1,6.1,0,0,0-.819.069,4.88,4.88,0,0,0-.807.2,7.148,7.148,0,0,0-.79.322l-.012.005a.186.186,0,0,1-.2-.306,3.682,3.682,0,0,1,.766-.557,3.9,3.9,0,0,1,.89-.361,3.73,3.73,0,0,1,.955-.147,3.255,3.255,0,0,1,.984.117.354.354,0,0,1-.128.692Z" transform="translate(-646.256 -157.196)" fill="#5e2b13"/>
                      <path id="Path_11327" data-name="Path 11327" d="M652.1,157.456a.431.431,0,0,1-.119.406.858.858,0,0,1-.369.207l-.01,0a.189.189,0,1,1-.111-.361.194.194,0,0,1,.069-.008.578.578,0,0,0,.27-.033.258.258,0,0,0,.1-.074.271.271,0,0,0,.053-.122l0-.013a.058.058,0,0,1,.114-.006Z" transform="translate(-647.98 -157.269)" fill="#5e2b13"/>
                    </g>
                  </g>
                </g>
                <path id="Path_11328" data-name="Path 11328" d="M645.106,169.37a3.276,3.276,0,1,1-3.276-3.275A3.276,3.276,0,0,1,645.106,169.37Z" transform="translate(-636.191 -160.205)" fill="#e9a770"/>
              </g>
            </g>
            <path id="Path_11329" data-name="Path 11329" d="M638.053,152.337a8.576,8.576,0,0,1-1.854,6.252,2.848,2.848,0,0,0-1.919-2.275,1.621,1.621,0,0,0-1.471.15,1.725,1.725,0,0,0-.469,1.709,3.47,3.47,0,0,0,1.916,2.448,10.091,10.091,0,0,1-.829,2,3.064,3.064,0,0,1-1.385,1.47,11.406,11.406,0,0,1-2.755-7.736c.06-1.49-.355-3.11.238-4.479a7.791,7.791,0,0,1,2.9-3.328,12.6,12.6,0,0,1,4.119-1.683,4.847,4.847,0,0,1,1.372-.165,1.974,1.974,0,0,1,1.261.5,2.3,2.3,0,0,1,.579,1.625A4.245,4.245,0,0,1,638.053,152.337Z" transform="translate(-628.811 -146.627)" fill="#5e2b13"/>
          </g>
          <g id="Group_6319" data-name="Group 6319">
            <path id="Path_11330" data-name="Path 11330" d="M635.483,145.473s-.591-.373-.083-.788,1.462-.321,1.317.332Z" transform="translate(-630.393 -144.271)" fill="#ff814f"/>
            <path id="Path_11331" data-name="Path 11331" d="M628.842,156.916s-2.985-6.177,1.907-10.158,12.687-2.7,14.093,2.7l-5.51,3.027Z" transform="translate(-627.941 -144.271)" fill="#ff4846"/>
            <path id="Path_11332" data-name="Path 11332" d="M636.832,144.956s5.839,3.056,5.373,7.472l6.81-2.8S646.013,141.745,636.832,144.956Z" transform="translate(-630.947 -144.187)" fill="#c42c2b"/>
            <path id="Path_11333" data-name="Path 11333" d="M628.062,158.691a.907.907,0,0,1,1-.11,1.254,1.254,0,0,1,.634.824l.179.685-1.368.6A6.576,6.576,0,0,1,628.062,158.691Z" transform="translate(-627.982 -149.02)" fill="#5e2b13"/>
            <path id="Path_11334" data-name="Path 11334" d="M638.674,155.815s9.92-4.046,9.93-5.5c0,0,4.7-1.905,6.312.148S637.3,156.4,637.3,156.4Z" transform="translate(-631.105 -145.988)" fill="#ff814f"/>
          </g>
        </g>
      </g>
    </g>
  </g>
</svg>
