<?xml version="1.0" encoding="utf-8"?>
<!-- Generator: Adobe Illustrator 28.3.0, SVG Export Plug-In . SVG Version: 6.00 Build 0)  -->
<svg version="1.1" id="Layer_1" xmlns="http://www.w3.org/2000/svg" xmlns:xlink="http://www.w3.org/1999/xlink" x="0px" y="0px"
	 viewBox="0 0 600 600" style="enable-background:new 0 0 600 600;" xml:space="preserve">
<style type="text/css">
	.st0{fill:#FFFFFF;}
	.st1{fill:url(#SVGID_1_);}
	.st2{fill:url(#SVGID_00000174566122353884894860000007896900351199834272_);}
</style>
<circle class="st0" cx="300" cy="300" r="300"/>
<linearGradient id="SVGID_1_" gradientUnits="userSpaceOnUse" x1="58.9" y1="300.1216" x2="528.4" y2="300.1216" gradientTransform="matrix(1 0 0 -1 0 600)">
	<stop  offset="0" style="stop-color:#E0DB1E"/>
	<stop  offset="1" style="stop-color:#EE2C59"/>
</linearGradient>
<path class="st1" d="M524.7,361c-5.2-11-12.6-19.9-23.8-25.2c-12-5.6-24.6-6.5-37.6-5c-3.2,0.4-6.4,1.3-9.6,1.9
	c-0.1-0.2-0.2-0.3-0.2-0.4c0.1-0.4,0.1-0.8,0.2-1.1c3.2-9.3,3-18.6,0-27.9c-4.7-15-9.6-30-14.3-44.9c-1.1-3.5-1.1-3.4,2.5-3.6
	c4.3-0.3,8.5-1.2,10-5.7c3.4-9.8,4.4-19.8,2.4-30c-0.6-3.2-2.4-5.6-5.5-6.7c-6.6-2.2-13.3-2.8-19.6,0.5c-2.8,1.5-5.7,2.5-8.8,3.1
	c-7.7,1.4-15.5,3-23.2,4.5c3.5-3.9,7.5-7.2,11-10.9c3.4-3.7,7.5-5.7,12-7.5c2.6-1,4.7-0.9,7.2,0.2c6.5,2.8,13,2.6,19-1.3
	c6.3-4.1,10.2-10.1,12.9-17c0.6-1.7,1.4-2.1,3-1.9c2.4,0.3,4.9,0.6,7.3,0.8c4.6,0.3,7.3-3.4,5.7-7.7c-0.8-2.2-2.2-4.1-4-5.7
	c-1.5-1.4-2.4-3.1-2.7-5.3c-0.9-5.8-3.2-11.1-7.3-15.4c-9.9-10.4-30.7-10.7-41.8-0.7c-5.2,4.7-9.1,10.1-11.6,16.6
	c-0.5,1.2-0.8,2.1-2.6,1.9c-11.7-1.3-23.3-0.4-34.6,2.3c-32,7.7-57.7,24.9-76.7,51.9c-6.6,9.4-11.2,19.7-12.7,31.2
	c-0.9,7.4-0.3,14.5,4.2,21.2c-3.5,0-6.5,0-9.6,0c-1.6,0-1.7-0.7-1.6-2c1-10.7,1.9-21.4,2.9-32.1c0.7-7.7,1.4-15.4,2-23.1
	c0.3-3.6-1.5-5.6-4.8-5.6c-27.7,0-55.4,0-83,0c-2.6,0-3.9,1.4-4.6,3.6c-0.3,1-0.4,2.1-0.5,3.2c-1.7,19.8-3.4,39.5-5.1,59.3
	c-0.4,5.3,1.5,7.4,6.9,7.4c8.1,0,16.2,0.1,24.4,0c2.2,0,2.8,0.5,2,2.6c-1.7,4.3-3.3,8.6-4.6,13c-0.6,1.9-1.7,3.2-3.2,4.4
	c-3.4,2.6-6.9,5.1-10.1,7.9c-9.8,8.5-19,17.6-27.2,27.8c-7.6,9.5-14.4,19.4-19.5,30.5c-3.2,7-5.9,14.1-5.5,22
	c0.3,6.9,4.3,10.8,11.1,10.9c3.9,0,7.8,0.1,11.7,0c2-0.1,2.4,0.6,2.2,2.5c-1.6,17.1,3.8,31.5,17.2,42.6c8.1,6.7,17.6,9.3,27.7,10.7
	c4.3,0.6,8.5-0.6,12.7-1.5c12.7-2.8,23.3-9,31.7-19c7.8-9.3,12.5-19.8,13.2-31.9c0.2-2.8,0.9-3.5,3.7-3.5
	c35.7,0.1,71.4,0.1,107.1,0.1c7.5,0,14.9-0.6,21.6-4.4c0.9-0.5,1.6-0.6,2.3,0.3c2.7,3.3,6.4,4.3,10.5,4.1c2.2-0.1,2.7,0.4,2.5,2.8
	c-2.9,30.3,19.3,53.2,49.6,53.1c1.7,0,3.2-0.7,4.8-1c17.9-2.9,31.7-12.1,40.7-27.6c9.8-16.9,10.7-34.4,0.9-51.9
	c-0.4-0.8-1.7-1.6-1-2.5c0.6-0.8,1.8-0.3,2.8-0.3c4.2,0,8.5,0.6,11-4c0-1,0-2,0-2.9C526.5,366.4,525.9,363.6,524.7,361z
	 M448.3,182.3c-1.7,3.9-4.2,7.3-7.6,9.8c-2.7,2-6,1.8-8.9,0.6c-3.5-1.4-6.8-3-10.7-1.4c-0.6,0.2-1,0-1.2-0.7c-0.9-3.2,0-4.6,3.3-4.7
	c0.2,0,0.4,0,0.6,0c3.7,0.2,7-1.4,9.8-3.3c4.4-3,9.2-2,13.9-2C448.9,180.5,448.7,181.4,448.3,182.3z M416.9,171.8
	c3.1-11,11.3-20.6,24.3-20.3c10.3,0.1,15.8,5.1,17.3,16c0.5,3.7,0.5,3.7-3.2,3.4c-3.8-0.3-7.6-0.3-11.4-0.9
	c-5.4-0.8-10.3,0.4-14.9,3.1c-3.5,2.1-7.1,1.4-10.8,0.9C416.8,173.9,416.5,173.1,416.9,171.8z M295.8,239.6c2.5-6,5.9-11.5,9.8-16.6
	c12.1-15.7,27.1-27.9,45.2-36.2c14-6.4,28.8-10,44.2-9.9c2.1,0,4.1,0.1,6.2,0c4.4-0.2,6.1,2.4,7,5.4c1.9,6,1.2,11.4-3.6,16.2
	c-9.3,9.2-19.3,17.6-29.6,25.7c-2,1.6-4.2,1.4-6.3,2c-3.8,1.1-5.8,3.2-5.2,6.2c0.6,3.1,3.4,4.9,7.1,4.2c15.2-2.9,30.3-5.9,45.4-8.9
	c3.1-0.6,6.1-1.2,9.2-1.9c2-0.5,3.2,0.6,4,2.1c0.9,1.7-0.6,2.4-1.7,3.2c-2.2,1.6-4.4,2.3-7.3,1.3c-7.1-2.5-13.5,0.1-20,2.9
	c-12.8,5.5-25.8,10.7-39.3,14.3c-3.1,0.8-6.4,1.4-9.3-0.9c-2.6-2.1-3.4-5-2.4-8.1c2.7-8,7.2-15.1,11.9-22.1
	c4.1-6,8.5-11.8,14.3-16.5c2.4-1.9,2.6-5.3,0.6-7.6c-1.8-2.1-4.6-2.5-7.1-0.7c-6.4,4.7-11,11.1-15.5,17.4
	c-5.5,7.5-10.2,15.5-13.6,24.2c-0.9,2.4-1.8,4.8-1.7,7.4c0.1,2.4-0.8,2.5-2.8,2.1c-10.8-2.2-21.6-3.5-32.6-3.2
	c-1.9,0-3.7,0.1-5.6,0.4C295.3,242.1,295,241.4,295.8,239.6z M395.2,275.2c-5.4-6.5-12.6-10.4-19.7-14.4c-1.5-0.9-3.1-1.6-5.2-2.8
	c11.9-3.9,22.8-8.1,33.5-12.7c1.6-0.7,1.9-0.2,2.4,1.2c3.2,10.5,6.5,20.9,9.7,31.3c2.4,7.9,4.7,15.9,7.2,23.8
	c3.5,11.1,1.2,21.1-5.4,30.5c-6.3,8.9-12.4,17.9-18.7,26.8c-3.9,5.5-8.4,10.3-15.7,11.2c-1.1,0.1-2.1,0.5-2.5-1
	c-1.9-7.2-7.4-10.7-13.8-13.2c-2.2-0.8-2.1-1.4-1-3.2c10.2-15.3,20.3-30.7,30.3-46.2c2.6-4,4.8-8.3,5.5-13.2
	C402.5,286.3,399.6,280.5,395.2,275.2z M291.8,255.9c0.1-1.8,0.7-2.7,2.4-3c4.5-0.9,9.1-0.9,13.7-0.9c27.5-0.1,51.3,10.4,73.8,25
	c2.7,1.8,4.9,4.2,6.8,6.8c2.9,4,3.5,8.4,1,12.9c-5.1,9.4-11.4,18.2-17.2,27.1c-6.8,10.3-13.7,20.6-20.6,30.9
	c-2.8,4.3-0.9,8.2,4.3,9.2c4.9,0.9,9.7,2.1,13,6.7c-5.2,0-10.5,0-15.7,0c-4.6,0-9.2-0.1-13.8,0c-1.7,0-2.3-0.5-2-2.2
	c0.5-2.6,1.1-5.2,2.2-7.6c9.8-21.1,20.8-41.6,31.7-62.1c2.8-5.2,1-8.7-4.9-9.4c-22.2-2.6-44-6.7-64-17.6c-1.2-0.7-2.3-1.4-3.6-2
	C292.8,267.2,291.3,262.1,291.8,255.9z M330.3,356.2c-1.8,3.8-3.2,7.8-3.4,12.1c-0.1,1.9-0.9,2.5-2.7,2.4c-3.8-0.3-6.2-2.5-8-5.6
	c-1.7-3-2.1-6.3-2.1-9.9c0.2-9.2,4.2-17.3,9.7-24.7c5.9-7.9,13-14.5,21.2-20c1.1-0.7,1.9-1.7,2.3-2.9c0.5-1.4,1-2.8,1.4-4.1
	c2-5.6,2-5.5,7.7-4.8c2.4,0.3,2.8,0.9,1.6,3c-5.2,9.7-10.4,19.5-15.4,29.3C338.4,339.3,334.4,347.7,330.3,356.2z M302.2,284
	c1.2,0,2.3,0.3,3.4,0.8c10.4,4.5,20.9,8.6,32.1,10.8c0.8,0.2,2.5,0,2,1.5c-0.5,1.3-0.1,3.6-2.6,3.6c-0.6,0-1.2,0-1.8,0
	c-18.5,0-36.9,0-55.4,0c-18.7,0-37.3-0.1-56,0.1c-2.8,0-3-0.8-2.1-3.1c1.2-3,2.2-6.1,3.3-9.1c1.1-2.8,3-4.5,6.2-4.5
	C254.9,284,278.5,284,302.2,284z M195.3,273.4c-2.5,0-3-0.5-2.8-3.1c1.5-15.6,2.9-31.1,4.1-46.7c0.2-2.5,1.1-3,3.4-3
	c10.9,0.1,21.7,0.1,32.6,0.1c11,0,22.1,0,33.1,0c2,0,2.7,0.4,2.5,2.6c-1.4,15-2.7,30-4,45c-0.4,5.1-0.3,5.1-5.5,5.1
	C237.6,273.3,216.5,273.3,195.3,273.4z M261.4,405.5c-0.7,9.4-4,17.8-10,25.1c-9.6,11.6-21.9,17.6-37.1,17.1
	c-21.2-0.7-37.5-20.6-34.2-41.5c0.4-2.7,1.3-3.8,4.1-3.2c0.7,0.2,1.6,0,2.3,0c5.4,0,5.4,0,5.2,5.6c-0.6,20.3,20.4,33.5,39.3,24.5
	c11.5-5.5,17.9-14.8,18.5-27.7c0.1-2.1,0.7-2.7,2.7-2.5c2.2,0.2,4.5,0.3,6.7,0C261.1,402.7,261.5,403.5,261.4,405.5z M202.9,404.4
	c0.5-1.6,1.5-1.5,2.7-1.5c5.2,0,10.3,0,15.5,0l0,0c5.2,0,10.3,0,15.5,0c1.4,0,2.2,0.1,2.2,1.8c-0.2,7.8-3.7,13.7-10.3,17.6
	c-6.4,3.9-13.1,4.1-19.6,0C203.6,418.9,200.9,410.6,202.9,404.4z M399.6,388.9c-4.1,2.6-8.8,3.2-13.5,3.2c-20,0.1-40.1,0-60.1,0
	c-55.7,0-111.5,0-167.2,0c-4.1,0-4.2,0-3.6-4.1c1.3-8.6,5.2-16.2,9.6-23.5c9.6-16,21.6-29.8,35.7-41.9c3.8-3.3,7.8-6.5,11.7-9.7
	c1.4-1.1,2.8-1.9,4.8-1.9c35.9,0.1,71.8,0,107.7,0c0.5,0,0.9,0,2,0.1c-2.5,2.6-4.6,4.7-6.7,7c-8,8.8-13.9,18.7-15.8,30.5
	c-1.7,10-0.5,19.5,7.4,27.1c3.7,3.6,8.2,5.4,13.2,5.4c17.8,0.1,35.6,0.1,53.4,0c9.8-0.1,18.7-3.1,25.3-10.9
	c4.8-5.7,8.8-11.9,13.1-17.9c4.5-6.4,9-12.7,13-19.4c7-11.6,7.2-24,3.2-36.7c-5.4-16.8-10.4-33.8-15.6-50.7c-0.3-1-1.4-2.1-0.5-3
	c1-0.9,2.2,0.2,3.3,0.5c0.6,0.2,1.2,0.6,1.8,1c7.6-0.5,13.6-3.8,17.6-10.2c2-3.2,1.9-6.9,0-10.3c-1.1-1.9-0.4-2.3,1.5-2.2
	c3.7,0.1,3.9,0.2,4,4c0.2,5.2-0.2,10.3-1,15.4c-0.4,2.4-1.2,3.7-4,3.3c-2.1-0.3-4.3-0.2-6.4-0.5c-3.4-0.5-5.9,0.7-7.6,3.7
	c-0.2,4.7,2,8.7,3.3,13c4.9,15.8,10.4,31.3,15,47.2c3.2,11.2,1,21.4-5.7,30.8c-9,12.6-17.8,25.4-26.7,38
	C408.2,381.1,404.7,385.8,399.6,388.9z M455.2,446.1c-15.8-4.4-26.7-20.7-25.2-37.5c0-0.1,0-0.2,0-0.3c0.1-3.6,0.9-6.4,4.5-8.6
	c5.9-3.5,10.1-9.2,15-13.9c3.1-3,6.3-5.8,9.9-8.2c2-1.3,4.2-2,6.6-1.9c10.2,0,20.3,0.1,30.5-0.1c2.6,0,4.2,0.9,5.8,2.7
	c6.1,7.2,9.3,15.5,9.3,25C511.5,432,482.9,453.9,455.2,446.1z M511.8,364.7c-13.3,0.1-26.6,0.7-39.9,0c-11.4-0.6-20,3.8-27.7,11.4
	c-4.1,4-8.2,8.1-12.3,12.2c-2.7,2.8-5.7,4.6-9.8,4c-1.8-0.3-3.7,0-5.6-0.1c-0.8,0-1.6,0.1-2-0.8c-0.3-0.8-0.1-1.5,0.5-2.2
	c5.5-6.8,10.3-14.2,15.4-21.3c3.2-4.4,6.4-8.8,9.3-13.4c4.3-6.7,11-9.3,18.1-11.6c5.3-1.7,10.7-2.2,16.2-2.1
	c9.6,0.2,18.9,1.5,27,7.2c5.4,3.8,9.7,8.8,12.7,14.7C515.1,365.5,512.8,364.7,511.8,364.7z M67.4,303.5c-3.9,0-6.9-0.9-8.5-4.7
	c0-0.6,0-1.2,0-1.8c1.5-3.4,4.1-4.4,7.7-4.4c33.4,0.1,66.9,0.1,100.3,0.1c0.2,0,0.4,0,0.6,0c4.3,0,7,2.1,6.9,5.4
	c-0.1,3.4-2.6,5.3-7,5.3c-12.4,0-24.8,0-37.3,0C109.2,303.4,88.3,303.4,67.4,303.5z M112.7,264.3c1.1-1.8,2.8-2.4,4.7-2.4
	c14.7,0,29.3-0.1,44,0c3.3,0,5.5,2.3,5.5,5.3s-2.4,5.3-5.8,5.4c-7.2,0.1-14.5,0-21.7,0c-7.3,0-14.7,0.1-22,0
	C112.9,272.4,110.4,268.1,112.7,264.3z M134.2,329.6c0,3.1-2.4,5.4-6.1,5.4c-13.3,0.1-26.6,0.1-39.8,0c-3.9,0-6.2-2.2-6-5.6
	c0.1-3.3,2.2-5,6.2-5c6.5,0,13.1,0,19.6,0c6.6,0,13.3,0,19.9,0C131.6,324.4,134.2,326.6,134.2,329.6z M296.2,357.9
	c0.2,2.6-0.5,4.7-2.8,6.1c-1.9,1.2-3.8,1-5.5-0.1c-2.1-1.3-2.4-3.4-2.5-5.6c-0.5-7.4-2.5-14.1-7.2-20.1c-4.3-5.4-9.9-8.3-16.6-9.4
	c-17.7-2.8-33.4,2.4-47.9,12.1c-7.8,5.2-14.4,11.6-20.9,18.3c-3.3,3.5-7.9,2.5-9.3-1.8c-0.6-1.9-0.2-3.6,1.1-4.9
	c14.5-15.7,31-28.4,52.3-33.3c12.4-2.9,24.9-3.1,36.8,2.4c12.6,5.8,19,16.6,21.7,29.8C295.7,353.4,295.9,355.6,296.2,357.9z
	 M472.9,378.2c-16.6,0-30.9,14.2-31,30.8c-0.1,15.1,11.5,26.9,26.5,27c16.4,0.1,31.1-14.3,31.2-30.6
	C499.8,390.3,487.9,378.3,472.9,378.2z M487.7,411.8c-3,8-10.6,13.3-19.1,13.3c-9.6,0-16.2-6.7-16-16.3c0.1-8,4.2-13.7,10.9-17.5
	c5.9-3.3,12.1-3.5,18.1,0.1C488.2,395.4,490.7,403.7,487.7,411.8z"/>
<g>
	
		<linearGradient id="SVGID_00000026148722380610397090000017026108416034655151_" gradientUnits="userSpaceOnUse" x1="87.8625" y1="87.8625" x2="512.1375" y2="512.1375" gradientTransform="matrix(1 0 0 -1 0 600)">
		<stop  offset="0" style="stop-color:#E0DB1E"/>
		<stop  offset="1" style="stop-color:#EE2C59"/>
	</linearGradient>
	<path style="fill:url(#SVGID_00000026148722380610397090000017026108416034655151_);" d="M300,18c38.1,0,75,7.5,109.8,22.2
		c33.6,14.2,63.7,34.5,89.6,60.4s46.2,56.1,60.4,89.6C574.5,225,582,261.9,582,300s-7.5,75-22.2,109.8
		c-14.2,33.6-34.5,63.7-60.4,89.6s-56.1,46.2-89.6,60.4C375,574.5,338.1,582,300,582s-75-7.5-109.8-22.2
		c-33.6-14.2-63.7-34.5-89.6-60.4s-46.2-56.1-60.4-89.6C25.5,375,18,338.1,18,300s7.5-75,22.2-109.8c14.2-33.6,34.5-63.7,60.4-89.6
		s56.1-46.2,89.6-60.4C225,25.5,261.9,18,300,18 M300,0C134.3,0,0,134.3,0,300s134.3,300,300,300s300-134.3,300-300S465.7,0,300,0
		L300,0z"/>
</g>
</svg>
