<svg id="Icon_small_business_man" data-name="Icon_small_business man" xmlns="http://www.w3.org/2000/svg" width="22.89" height="22.662" viewBox="0 0 22.89 22.662">
  <path id="Path_10535" data-name="Path 10535" d="M8.166,14.519,9.98,19.81l.913-3.141-.447-.486a.73.73,0,0,1-.134-.767c.242-.475.743-.386,1.211-.386.49,0,1.1-.092,1.25.517a.8.8,0,0,1-.156.636l-.447.486.913,3.141,1.643-5.291c1.185,1.057,4.692,1.269,6,1.992a3.426,3.426,0,0,1,1.086.911,4.359,4.359,0,0,1,.81,2.363l.272,1.724a1.2,1.2,0,0,1-1.254,1.162H1.254A1.193,1.193,0,0,1,0,21.508l.272-1.724a4.359,4.359,0,0,1,.81-2.363,3.378,3.378,0,0,1,1.086-.911c1.306-.722,4.813-.935,6-1.992ZM7.344,6.946a.99.99,0,0,0-.51.133.411.411,0,0,0-.147.168.6.6,0,0,0-.048.27,2.4,2.4,0,0,0,.482,1.166l0,.007h0l1.013,1.6A8.576,8.576,0,0,0,9.5,12.065a2.794,2.794,0,0,0,1.945.776A2.873,2.873,0,0,0,13.5,12.03a8.944,8.944,0,0,0,1.4-1.9l1.142-1.866a1.811,1.811,0,0,0,.242-.994c-.03-.113-.155-.168-.367-.177-.045,0-.091,0-.14,0s-.1.006-.16.009a.344.344,0,0,1-.088-.006,1.632,1.632,0,0,1-.313-.017l.391-1.716A8.949,8.949,0,0,1,10.4,3.906c-.555-.351-.723-.754-1.278-.715a1.886,1.886,0,0,0-1.052.565,2.7,2.7,0,0,0-.6,1.179l.222,2.023a1.652,1.652,0,0,1-.348-.013Zm8.967-.36a.729.729,0,0,1,.535.549,2.251,2.251,0,0,1-.278,1.373h0l-.017.033L15.4,10.428a9.357,9.357,0,0,1-1.5,2.018,3.425,3.425,0,0,1-2.448.964,3.345,3.345,0,0,1-2.33-.926,9,9,0,0,1-1.462-1.892l-1.013-1.6a2.92,2.92,0,0,1-.576-1.461,1.157,1.157,0,0,1,.1-.523.966.966,0,0,1,.348-.4,1.174,1.174,0,0,1,.246-.124,25.337,25.337,0,0,1-.048-2.875,3.867,3.867,0,0,1,.125-.652A3.852,3.852,0,0,1,8.55.793,4.714,4.714,0,0,1,9.472.348a5.792,5.792,0,0,1,5.91,1.162,3.891,3.891,0,0,1,.993,2.465l-.063,2.611Z" transform="translate(0 -0.008)" fill="#00b795" fill-rule="evenodd"/>
</svg>
