<svg xmlns="http://www.w3.org/2000/svg" width="26.863" height="21.49" viewBox="0 0 26.863 21.49">
  <path id="_8541668_biking_bicycle_cycle_bike_icon" data-name="8541668_biking_bicycle_cycle_bike_icon" d="M16.789,4.029a2.015,2.015,0,1,0-2.015-2.015,2.015,2.015,0,0,0,2.015,2.015Zm-.168,5.079a1.339,1.339,0,0,0,.839.294h2.686a1.343,1.343,0,1,0,0-2.686H17.932L14.942,4.323a1.341,1.341,0,0,0-1.713.029l-4.7,4.029a1.343,1.343,0,0,0,.129,2.137l3.43,2.288v4.654a1.343,1.343,0,1,0,2.686,0V12.088a1.343,1.343,0,0,0-.6-1.117L12.44,9.814l2.445-2.1Zm4.869,1.637a5.373,5.373,0,1,0,5.373,5.373A5.373,5.373,0,0,0,21.49,10.745Zm0,8.059a2.686,2.686,0,1,1,2.686-2.686A2.686,2.686,0,0,1,21.49,18.8ZM5.373,10.745a5.373,5.373,0,1,0,5.373,5.373,5.373,5.373,0,0,0-5.373-5.373Zm0,8.059a2.686,2.686,0,1,1,2.686-2.686A2.686,2.686,0,0,1,5.373,18.8Z" fill="#00b795"/>
</svg>
