<svg xmlns="http://www.w3.org/2000/svg" width="234.173" height="218.742" viewBox="0 0 234.173 218.742">
  <g id="Group_7723" data-name="Group 7723" transform="translate(-1005.544 -1125.788)">
    <g id="Component_29_52" data-name="Component 29 – 52" transform="matrix(0.999, -0.035, 0.035, 0.999, 1006.141, 1134.22)">
      <g id="Group_6203" data-name="Group 6203" transform="translate(9.672 7.719)">
        <g id="Group_6201" data-name="Group 6201" transform="translate(0 0)">
          <path id="Path_11091" data-name="Path 11091" d="M211.229,217.354a26.543,26.543,0,0,0,6.144-5.4c13.088-15.9,12.951-38.331,12.051-57.661-1.061-22.817-5.084-45.647-16.714-65.771-11.191-19.395-28.083-35.876-49.222-44.693a92.8,92.8,0,0,0-18.149-5.436A72.682,72.682,0,0,0,110.7,40.022a104.4,104.4,0,0,0-12.517,4.725C70.374,57.2,60.548,81.582,48.192,106.475c-9.161,17.67-18.163,32.048-25.8,50.236-8.553,20.367,5.152,42.624,22.629,53.556a69.3,69.3,0,0,0,12.732,6.206c41.565,15.349,88.442,20.055,131.707,8.885C196.755,223.478,204.824,221.482,211.229,217.354Z" transform="translate(-19.78 -37.032)" fill="#f9ffef"/>
        </g>
      </g>
      <g id="Group_6201-2" data-name="Group 6201">
        <path id="Path_11091-2" data-name="Path 11091" d="M225.747,231.668a28.583,28.583,0,0,0,6.61-5.828c14.081-17.161,13.933-41.373,12.964-62.238-1.141-24.628-5.469-49.271-17.981-70.992-12.04-20.934-30.213-38.724-52.955-48.241A99.59,99.59,0,0,0,154.86,38.5,77.946,77.946,0,0,0,117.6,40.259a112.09,112.09,0,0,0-13.466,5.1C74.21,58.8,63.64,85.118,50.347,111.987c-9.855,19.073-19.54,34.592-27.754,54.224-9.2,21.984,5.543,46.008,24.345,57.807a74.453,74.453,0,0,0,13.7,6.7c44.717,16.567,95.149,21.647,141.7,9.591C210.176,238.278,218.857,236.124,225.747,231.668Z" transform="translate(-19.78 -37.032)" fill="none" stroke="rgba(255,202,0,0.5)" stroke-width="1" stroke-dasharray="127 68"/>
      </g>
    </g>
    <g id="Group_6393" data-name="Group 6393" transform="translate(291.202 859.035)">
      <path id="Path_11440" data-name="Path 11440" d="M1277.087,318.018h-6.351l-.037-11.988-13.575.042v.005l-4.073.016h-.028l.009,3.828.028.021.02,8.076H1198.4V463.706h78.691v.051h10.7V318.018Zm-76.908,107.034v.265h0Zm75.125,18.316-20.764.064v.008l-6.286.024h-.043l.015,5.907.043.032.031,12.434h-48.121V429.294H1275.3ZM1216.951,425.3l.074.016h-.074Zm58.353.016h-7.339l-.057-30.31-20.949.065v.008l-6.286.024h-.043l.015,5.907.038.028.037,24.263h6.3v.014h-19.6l-.051-18.677-20.949.065v.008l-6.24.024V392.773H1275.3Zm0-36.521h-21.4l-.057-18.677-20.949.065v.008l-6.285.024h-.043l.015,5.907.043.033.031,12.639h-26.475V356.252H1275.3Zm0-36.521h-75.125V319.731H1275.3Z" transform="translate(-401.251)" fill="#d1b69f"/>
      <g id="Group_6382" data-name="Group 6382" transform="translate(789.435 446.845)">
        <g id="Group_6380" data-name="Group 6380" transform="translate(12.396 0)">
          <rect id="Rectangle_2339" data-name="Rectangle 2339" width="18.037" height="20.337" transform="matrix(0.003, -1, 1, 0.003, 0, 18.037)" fill="#d3671e"/>
          <path id="Path_11441" data-name="Path 11441" d="M1344.889,1540.209l-16.281-.063-.044,18.037,16.281.063Z" transform="translate(-1318.395 -1540.115)" fill="#f1a34f"/>
          <path id="Path_11442" data-name="Path 11442" d="M1328.218,1540.12l16.323.063-.014,5.735-16.354,12.239Z" transform="translate(-1318.05 -1540.092)" fill="#d86713" opacity="0.4"/>
        </g>
        <g id="Group_6381" data-name="Group 6381" transform="translate(0 6.468)">
          <rect id="Rectangle_2340" data-name="Rectangle 2340" width="11.59" height="13.068" transform="translate(0 11.59) rotate(-89.823)" fill="#d3671e"/>
          <path id="Path_11443" data-name="Path 11443" d="M1198.588,1596.766l-10.462-.04-.029,11.59,10.462.04Z" transform="translate(-1181.563 -1596.706)" fill="#f1a34f"/>
          <path id="Path_11444" data-name="Path 11444" d="M1188.126,1596.726l10.489.04-.009,3.685-10.508,7.865Z" transform="translate(-1181.563 -1596.706)" fill="#d86713" opacity="0.4"/>
        </g>
      </g>
      <path id="Path_11445" data-name="Path 11445" d="M1556.878,1538.153a10.6,10.6,0,0,0-.595-2.735q-.088-.243-.188-.478-.073-.172-.151-.34-.089-.19-.185-.375-.106-.2-.219-.4a8.62,8.62,0,0,0-1.3-1.711l-.005-.005c-.174-.175-.355-.341-.542-.5-.145-.121-.3-.235-.448-.343a7.025,7.025,0,0,0-.677-.425q-.13-.071-.262-.137a6.2,6.2,0,0,0-2.37-.64q-.188-.012-.379-.012h-3.424c-4.066,0-7.361,4.037-7.361,9.016s3.3,9.016,7.361,9.016h3.424q.191,0,.379-.012a6.207,6.207,0,0,0,2.37-.641q.133-.066.262-.137a6.976,6.976,0,0,0,.677-.425c.152-.108.3-.222.448-.343.187-.156.368-.321.542-.5l.005-.005a8.628,8.628,0,0,0,1.3-1.711q.114-.194.219-.4.1-.184.185-.375.079-.168.151-.34.1-.235.188-.478a10.59,10.59,0,0,0,.595-2.735q.037-.455.038-.922T1556.878,1538.153Z" transform="translate(-702.779 -1084.333)" fill="#045143"/>
      <g id="Group_6386" data-name="Group 6386" transform="translate(745.451 320.821)">
        <path id="Path_11446" data-name="Path 11446" d="M1237.154,865.817h-1.726a.649.649,0,0,0-.294-.839.659.659,0,0,0-.816.434.806.806,0,0,0-.056.405h-1.687a.205.205,0,0,0-.155.071l-.558.645a.205.205,0,0,0,.155.339h4.579a.205.205,0,0,0,.155-.071l.558-.645A.205.205,0,0,0,1237.154,865.817Zm-2.107-.109a.2.2,0,1,1-.092-.289A.216.216,0,0,1,1235.047,865.709Z" transform="translate(-1176.304 -815.945)" fill="#ffa412"/>
        <g id="Group_6384" data-name="Group 6384" transform="translate(0 2.646)">
          <path id="Path_11447" data-name="Path 11447" d="M940.257,459.273l-5.557,4.355c-.261.407.3.429.054.931-2.258,4.635-.743,9.591,1.168,9.091,1.226-.321,1.573,1.771,1.573,1.771l11.911-9.643S945.031,456.725,940.257,459.273Z" transform="translate(-912.148 -458.821)" fill="#2c3a64"/>
          <path id="Path_11448" data-name="Path 11448" d="M866.608,1049.071l-2.53.942s-10.989-15.241-12.342-28.652a20.374,20.374,0,0,1,.361-6.856s-.107-.613-.3-1.7c-.087-.506-.194-1.116-.316-1.814-.357-2.047-.849-4.848-1.411-8.037-1.293-7.339-2.968-16.721-4.27-23.618l.682-.219,7.376-2.379,1.524-4.842,5.492-1.446s1.227,2.4,2.324,13.739c.2,1.487.386,3.127.525,4.906a97.089,97.089,0,0,1-.523,19.861q-.378,2.956-.965,6.1a27.188,27.188,0,0,0-.211,6.019C862.584,1032.035,866.608,1049.071,866.608,1049.071Z" transform="translate(-834.352 -912.062)" fill="#00b795"/>
          <path id="Path_11449" data-name="Path 11449" d="M863.728,989.1,851.8,1012.808c-.087-.506-.194-1.116-.316-1.814-.357-2.047-.849-4.848-1.411-8.037-1.293-7.339-2.968-16.721-4.27-23.618l.682-.219,7.376-2.379,1.524-4.842,5.492-1.446s1.227,2.4,2.324,13.739C863.406,985.679,863.59,987.319,863.728,989.1Z" transform="translate(-834.352 -912.062)" fill="#028e74"/>
          <path id="Path_11450" data-name="Path 11450" d="M772.918,952.088l-.276-2.368c-4.626,1.229-16.985-3.433-16.985-3.433s-4.481,3.939-3.893,13.381c.287,4.609.812,24.192,1.36,29.987.2,2.1.371,3.595.442,4.192a.012.012,0,0,1,0,.006.826.826,0,0,1-.134.513,27.215,27.215,0,0,0-2.022,4.253c-5.377,14.329.828,31.976.828,31.976l1.61-.649s3.531-19.639,6.4-28.315a17.188,17.188,0,0,1,1.382-3.319,37.476,37.476,0,0,0,3.456-9.217,226.65,226.65,0,0,0,4.649-24.451C769.884,964.652,772.918,952.088,772.918,952.088Z" transform="translate(-748.788 -890.654)" fill="#00b795"/>
          <path id="Path_11451" data-name="Path 11451" d="M1244.827,932.906c-1,.881-3.638-2.144-4-2.547a.233.233,0,0,0-.038-.057l.8-2.24s3.466-.134,4.04.44S1245.918,931.968,1244.827,932.906Z" transform="translate(-1184.255 -874.496)" fill="#ed985f"/>
          <path id="Path_11452" data-name="Path 11452" d="M1036.691,724.785l-.345,2.317s-.153,0-.421-.019c-.842-.057-2.891-.172-5.208-.421-3.485-.345-7.62-.957-9.267-1.972-2.508-1.531-6.625-6.223-9.305-10.914a3.081,3.081,0,0,1-.192-.344,16.84,16.84,0,0,1-2.451-6.931,9.9,9.9,0,0,1,.325-3.14,8.009,8.009,0,0,1,1.417-2.834,1.427,1.427,0,0,1,.268-.325,6.612,6.612,0,0,1,1.819-1.551c.459-.192.957.038,1.474.593v.019a8.779,8.779,0,0,1,1.321,1.953c.019.019.038.038.038.057.1.172.191.364.306.574a.485.485,0,0,1,.077.134q.316.66.632,1.378c2.355,5.131,4.863,12.905,6.95,15.222.9,1,5.017,2.949,8.291,4.4C1034.776,724.019,1036.691,724.785,1036.691,724.785Z" transform="translate(-979.355 -671.22)" fill="#ed985f"/>
          <path id="Path_11453" data-name="Path 11453" d="M914.665,611.844a14.4,14.4,0,0,1-5.327,1.248c-7.953.436-9.758-6.536-10.086-11.163a6.673,6.673,0,0,1,2.729-.345c.564.031,1.153.089,1.638.149.973-.508,2.721-2.976,3.73-7.106l.343.159,5.738,2.7s-.609,1.867-1.06,3.654c-.351,1.4-.6,2.749-.392,3.127.453.184.723.3.723.3a.018.018,0,0,0,0,.006A39.37,39.37,0,0,1,914.665,611.844Z" transform="translate(-881.698 -579.128)" fill="#ffb27d"/>
          <path id="Path_11454" data-name="Path 11454" d="M815.711,669.882c-.06.159-.126.314-.2.473-2.014,4.338-5.743,22.306-5.743,22.306.531,3.231-24.279-.634-24.343-3.576-.874-3.119,3.1-8.13,5.342-10.644a7.16,7.16,0,0,0,1.768-3.978,102.626,102.626,0,0,0,.31-10.454h0c.438-.324.862-.624,1.256-.909a11.214,11.214,0,0,0,1.529-1.268,2.312,2.312,0,0,0,.733-1.444,7.665,7.665,0,0,0-.031-1.211c-.019-.192-.043-.384-.072-.576a16.415,16.415,0,0,0-1.153-3.848c2.134-.863,5.928-.349,5.928-.349s0,.211-.006.556c-.012,1.386,0,4.945.444,5.619.556.839,10.72,4.513,11.258,3.375.529-1.12-.919-6.364-.973-6.562a.017.017,0,0,1,0-.006,16.033,16.033,0,0,1,4.621,2.458C814.327,661.173,817.3,665.674,815.711,669.882Z" transform="translate(-780.755 -631.948)" fill="#00b795"/>
          <path id="Path_11455" data-name="Path 11455" d="M978.939,598.729s-.61,1.866-1.059,3.654c-3.354-.936-4.373-4.461-4.679-6.351Z" transform="translate(-947.207 -580.372)" fill="#ed985f"/>
          <path id="Path_11456" data-name="Path 11456" d="M975.96,523.691s-8.025-1.857-6.791-6.837,1.028-8.573,6.2-7.6,5.7,3.121,5.689,4.883S978.079,524.046,975.96,523.691Z" transform="translate(-943.522 -503.359)" fill="#ffb27d"/>
          <path id="Path_11457" data-name="Path 11457" d="M965.855,500.848c-.863-1.8-1.878-1.708-2.513-1.389-3.771-3.489-9.485-1.735-9.485-1.735-1.424,3.439-2.492,5.941-2.492,5.941s1.233,1.262,4.806,1.235a5.883,5.883,0,0,0,3.187-1.2,19.212,19.212,0,0,1-4.184,3.121c4.473-.856,7.472-6.034,7.779-6.584a6.455,6.455,0,0,1,1.165,2.756c.083,1.367-.387,4.021.4,4.122C964.512,507.114,967.148,503.555,965.855,500.848Z" transform="translate(-927.864 -492.894)" fill="#2c3a64"/>
          <path id="Path_11458" data-name="Path 11458" d="M1047.421,703.232s1.932,3.37,2.221,4.238c0,0-2.506-.1-3.517,1.831C1046.125,709.3,1045.882,703.686,1047.421,703.232Z" transform="translate(-1011.797 -675.338)" fill="#50dcc2"/>
          <path id="Path_11459" data-name="Path 11459" d="M851.348,745.46c-4.893-.052-9.037-5.133-11.569-9.194A7.058,7.058,0,0,0,840.8,733.3a102.647,102.647,0,0,0,.31-10.454h0c.438-.324.862-.624,1.256-.909a11.217,11.217,0,0,0,1.529-1.268C847.9,727.442,857.983,745.531,851.348,745.46Z" transform="translate(-829.014 -690.785)" fill="#028e74"/>
          <path id="Path_11460" data-name="Path 11460" d="M758.264,1640.782H745.521a7,7,0,0,1,.36-3.416c.638-1.414,1.637-2.056,1.4-3.767a4.59,4.59,0,0,0,3.972,1.519,13.975,13.975,0,0,0,2.211,2.866C754.294,1638.583,758.008,1638.37,758.264,1640.782Z" transform="translate(-745.451 -1499.524)" fill="#045143"/>
          <path id="Path_11461" data-name="Path 11461" d="M997.5,1645.216H984.755a5.3,5.3,0,0,1,.36-3.416,2.456,2.456,0,0,0-.092-2.933,4.955,4.955,0,0,0,2.146.4,4.49,4.49,0,0,0,1.9-.667,45.771,45.771,0,0,0,3.631,3.814C993.528,1643.018,997.242,1642.8,997.5,1645.216Z" transform="translate(-957.324 -1503.959)" fill="#045143"/>
          <g id="Group_6383" data-name="Group 6383" transform="translate(39.622 47.697)">
            <path id="Path_11462" data-name="Path 11462" d="M1105.026,876.744l-12.4,16.129.184.225,12.575-16.16Z" transform="translate(-1092.627 -876.744)" fill="#233862"/>
            <path id="Path_11463" data-name="Path 11463" d="M1106.79,878.718h12.583L1106.2,894.847h-11.962Z" transform="translate(-1094.055 -878.493)" fill="#022e26"/>
          </g>
          <path id="Path_11464" data-name="Path 11464" d="M884.854,692.949c-.035-.642-.881-.612-1.524-.615a12.37,12.37,0,0,1-3.68-.446s3.073-.044,2.42-1.015a16.662,16.662,0,0,0-3.352-.043,5.942,5.942,0,0,0-2.339,1c-1.236-.163-2.359-.4-2.722-.481h0c-.843-.459-1.857-1.015-2.929-1.628a85.747,85.747,0,0,1-7.582-4.71,9.273,9.273,0,0,1-2.355-2.125,26.37,26.37,0,0,1-1.608-3.733c-.306-.843-.632-1.762-.957-2.738-.574-1.608-1.149-3.351-1.742-5.093-1.072-3.178-2.221-6.376-3.312-8.846a17.39,17.39,0,0,0-2.049-3.619c-.517-.632-1.015-.957-1.493-.881-.077.019-.134.038-.192.057,0,0-2.757.766-2.8,6.318a8.464,8.464,0,0,0,.019.977,20.571,20.571,0,0,0,.517,3.465,52.379,52.379,0,0,0,2.183,7.276c.268.689.536,1.4.823,2.106,2.068,5.132,4.729,9.918,6.969,11.545a2.336,2.336,0,0,0,.268.192,20.146,20.146,0,0,0,3.906,1.742c2.259.766,4.94,1.455,7.333,2.03h.019c1.4.306,2.681.594,3.753.8,0,0,.176.044.489.106l.143.028a42.8,42.8,0,0,1,5.074,1.551,5.076,5.076,0,0,0,5.706-1.225A3.184,3.184,0,0,0,884.854,692.949Z" transform="translate(-835.085 -635.239)" fill="#ffb27d"/>
          <path id="Path_11465" data-name="Path 11465" d="M853.169,662.378c-3.686-1.016-6.529,1.862-6.529,1.862.046-5.544,2.806-6.3,2.806-6.3C850.556,657.478,852.9,658.719,853.169,662.378Z" transform="translate(-835.092 -635.132)" fill="#50dcc2"/>
        </g>
        <g id="Group_6385" data-name="Group 6385" transform="translate(21.675 0)">
          <path id="Path_11466" data-name="Path 11466" d="M946.839,435.944a10.045,10.045,0,0,0-4.677-.066c-.129.031-.257.066-.382.1h0c-4.985,1.491-6.24,7.266-6.24,7.266a15.043,15.043,0,0,0-.156,2.17c.053.656,4.8,2.349,5.521,1.506a6.3,6.3,0,0,1,2.112-1.391s4.861,2.069,5.189,2.207a31.234,31.234,0,0,0,4.665.952C952.985,448.378,956.092,438.063,946.839,435.944Z" transform="translate(-935.373 -435.634)" fill="#ffa412"/>
          <path id="Path_11467" data-name="Path 11467" d="M1005,450.766a17.884,17.884,0,0,0-2.929-1.932,14.241,14.241,0,0,1-4.96-.083c-.445-2.2-2.062-7.771-6.107-11.22l-.035-.031c-.161.073-.237.087-.347.135h0a1.075,1.075,0,0,0-.112.055c3.417,2.564,4.837,8.591,5.257,10.791a23.458,23.458,0,0,1-3.908-1.3s3.619,3.854,12.888,4.27A.392.392,0,0,0,1005,450.766Z" transform="translate(-984.218 -437.288)" fill="#e27f2b"/>
        </g>
        <path id="Path_11468" data-name="Path 11468" d="M1201.27,876.744h12.654l.265.225h-12.583Z" transform="translate(-1149.248 -826.402)" fill="#233862"/>
      </g>
      <path id="Path_11469" data-name="Path 11469" d="M1639.579,1523.771h-22.786a.857.857,0,0,1,0-1.712h22.786a.857.857,0,0,1,0,1.712Z" transform="translate(-771.177 -1077.246)" fill="#2b478b"/>
      <path id="Path_11470" data-name="Path 11470" d="M1637.923,1292.771h-23.239a.856.856,0,0,1,0-1.712h23.239a.856.856,0,0,1,0,1.712Z" transform="translate(-769.294 -872.61)" fill="#2b478b"/>
      <g id="Group_6389" data-name="Group 6389" transform="translate(874.577 318.684)">
        <path id="Path_11471" data-name="Path 11471" d="M1937.284,674.425a40.331,40.331,0,0,0,11.984-.589,13.376,13.376,0,0,0,2.435-.759,3.759,3.759,0,0,0,1.762-1.331,49.218,49.218,0,0,0,2.463-7.341c2.929-10.186,7.052-27.017,7.052-27.017s-8.278,1.69-10.03,3.132-3.3,24.321-4.947,24.939c-.242.091-.662.283-1.2.547l-.079.039c-.32.158-.68.34-1.07.541-3.418,1.756-9.074,4.92-9.66,5.624C1935.223,673.137,1935.274,673.961,1937.284,674.425Z" transform="translate(-1928.839 -612.225)" fill="#50dcc2"/>
        <path id="Path_11472" data-name="Path 11472" d="M2090.037,650.413a6.536,6.536,0,0,1,.11-1.17c1.065-5.857,9.535-11.855,9.7-11.855v.122c0,.9,1.411,2.548,3.585,2.69,2.578.169,5.761-1.3,5.761-2.788.016,0,1.449.194,1.934.248,2.067.235,6.191,1.351,7.958,2.687,1.68,1.269-.694,9.272-2.164,14.939a22.69,22.69,0,0,0-1.006,5.253c.037.428.422,6.245.765,11.507.284,4.341.541,8.3.549,8.552.018.493-2.434,2.22-6.55,3.525a32.106,32.106,0,0,1-3.265.847,34.708,34.708,0,0,1-7.1.7c-.85,0-1.656-.046-2.416-.122C2092.017,684.975,2090,678.274,2090.037,650.413Z" transform="translate(-2065.708 -612.225)" fill="#50dcc2"/>
        <path id="Path_11473" data-name="Path 11473" d="M2185.112,580.439a49.875,49.875,0,0,0-.3-7.286l-9.08,1.484s-.01,2.772.03,5.847c-.006,0-.247,2.852,3.266,3.269S2185.207,582.64,2185.112,580.439Z" transform="translate(-2141.627 -555.321)" fill="#d9935c"/>
        <path id="Path_11474" data-name="Path 11474" d="M2070.248,1627.427c1.142-.7.471-5.91.471-5.91s-5.348-4.245-6.068-.977-5.047,4.751-7.512,5.16c-1.7.282-2.329,1.162-2.49,1.721Z" transform="translate(-2034.359 -1482.076)" fill="#045143"/>
        <path id="Path_11475" data-name="Path 11475" d="M2264.215,751.537c0,8.708,4.22,6.361,6.768,4.01-.343-5.262-.584-23.9-.584-23.9S2264.215,739.067,2264.215,751.537Z" transform="translate(-2220.008 -695.726)" fill="#028e74"/>
        <path id="Path_11476" data-name="Path 11476" d="M2024.225,782.688c.168,1.221,2.1,4.777,3.611,7.25a13.376,13.376,0,0,0,2.435-.759,3.759,3.759,0,0,0,1.762-1.331,49.23,49.23,0,0,0,2.463-7.341c-.787-4.551-1.535-9.045-1.535-9.045l-.232-3.014c0,.232-3.529,13.475-5.127,13.784a5.669,5.669,0,0,1-2.228-.124l-.079.039C2024.975,782.3,2024.614,782.487,2024.225,782.688Z" transform="translate(-2007.407 -728.327)" fill="#028e74"/>
        <path id="Path_11477" data-name="Path 11477" d="M2213.9,1627.427c1.141-.7.471-5.91.471-5.91s-5.348-4.245-6.068-.977-5.047,4.751-7.512,5.16c-1.7.282-2.319,1.162-2.481,1.721Z" transform="translate(-2161.625 -1482.076)" fill="#045143"/>
        <path id="Path_11478" data-name="Path 11478" d="M2168.4,467.433s6.062-9.557-5.578-10.19c0,0-4.366.514-5.354-.474a10.683,10.683,0,0,0-.224,10.664C2160.41,472.951,2168.4,467.433,2168.4,467.433Z" transform="translate(-2124.053 -452.219)" fill="#233862"/>
        <path id="Path_11479" data-name="Path 11479" d="M2168.906,504.949a12.472,12.472,0,0,0,4.217,1.464,33.738,33.738,0,0,0,4.534-1.276c1.08-.655,1.01-1.98,1.066-3.822a28.768,28.768,0,0,0,.043-5.15c-.289-1.5-1.243-2.359-3.912-2.592-4.9-.425-6.941.8-7.027,2.445-.022.441-.043.862-.057,1.26C2167.573,502.4,2167.978,504.219,2168.906,504.949Z" transform="translate(-2134.527 -484.748)" fill="#d9935c"/>
        <path id="Path_11480" data-name="Path 11480" d="M2167.725,541.411c.047,2.968.848,4.725,1.428,4.947a12.259,12.259,0,0,0,2.273.607c.276.032.541.023.537-.133-.009-.468-.634-1.045-.17-1.46.488-.435,3.1-.581,3.316.367.1.463-.741,1.279-.163,1.3.175-.03.347-.064.512-.107a7.638,7.638,0,0,0,2.016-.889c1.08-.655,1.009-1.658,1.248-3.486.155-1.182.155-.541,0,1.213-.162,1.836.155,3.014-1.066,3.822-.679.449-4.59,2.207-4.59,2.207.057-.931-3.278-1.7-4.16-2.395C2168.087,546.759,2167.676,545.269,2167.725,541.411Z" transform="translate(-2134.527 -527.202)" fill="#233862"/>
        <path id="Path_11481" data-name="Path 11481" d="M2111.266,772.615c.019.493-2.433,2.22-6.55,3.525-.332.106-.675.207-1.028.306a.011.011,0,0,0-.009.01c-.384,4.505-1.424,10.871-2.362,17.013v0c-.243,1.592-.478,3.169-.694,4.695a93.374,93.374,0,0,0-1.047,10.365v.028c-.02,1.215,1,4.246,1.082,4.947.048.428.087.881.114,1.356a54.977,54.977,0,0,1-.086,6.531c-.672,10.444-3.432,23.806-4.416,24.375-1.958,1.131-5.519,0-7.329-.266a1.5,1.5,0,0,1-1.311-1.506c.884-17.332-1.656-41.471-3.554-56.309q-.074-.58-.147-1.138c-.228-1.75-.377-3.384-.472-4.857-.087-1.292-.128-2.466-.147-3.483,0-.317-.008-.62-.009-.906,0-.929.734-7.01.768-34.871h0a1.175,1.175,0,0,1,1.171-1.17h17.038a2.953,2.953,0,0,1,2.95,2.994,47.466,47.466,0,0,0,.512,7.925c.629,3.869,1.976,7.482,4.755,8.352a.01.01,0,0,1,.007.006c.013.028.089.2.211.479a.014.014,0,0,1,0,0q.04,1.049.088,2.137c.006.145.012.292.02.439,0,.087.008.172.012.258.006.147.014.3.022.444.011.244.023.49.037.739.01.195.021.39.032.586q.03.566.068,1.144c.006.124.014.246.023.371.033.5.066,1,.105,1.512.011.156.023.312.036.47,0,.076.011.151.017.227.016.2.031.4.048.6s.036.425.054.64C2111.346,771.369,2111.245,772.067,2111.266,772.615Z" transform="translate(-2059.743 -704.243)" fill="#00b795"/>
        <path id="Path_11482" data-name="Path 11482" d="M2101.9,1104.524c-.672,10.444-3.432,23.806-4.416,24.375-1.957,1.132-5.519,0-7.329-.266a1.5,1.5,0,0,1-1.311-1.506c.884-17.332-1.656-41.471-3.554-56.309q-.075-.58-.147-1.138c-.227-1.75-.377-3.384-.471-4.857.9-5.883,6-6.2,10.618,5.972C2094.717,1074.833,2102.052,1102.131,2101.9,1104.524Z" transform="translate(-2060.955 -987.375)" fill="#028e74"/>
        <path id="Path_11483" data-name="Path 11483" d="M2170.066,1023.2c.14,1.207,1.553,4.078,1.723,4.762,2.336,9.394,1.045,31.669-.113,32.559-1.792,1.379-5.472.724-7.3.7a1.494,1.494,0,0,1-1.5-1.32c-1.436-17.748-7.388-42.124-11.216-56.463a67.263,67.263,0,0,1-2.2-12.534s17.888-10.96,19.823-4.973C2171,991.23,2168.987,1013.932,2170.066,1023.2Z" transform="translate(-2118.352 -919.406)" fill="#00b795"/>
        <g id="Group_6388" data-name="Group 6388" transform="translate(31.014 0)">
          <path id="Path_11484" data-name="Path 11484" d="M2151.1,419.257q.185-.208.393-.4a6.957,6.957,0,0,1,2.131-1.385,7.142,7.142,0,0,1,7.322,1.13c.16.12.309.241.449.362a9.407,9.407,0,0,1,1.369,1.413s1.515,2.066,1.464,6.423l-15.6.167S2148.4,422.257,2151.1,419.257Z" transform="translate(-2148.621 -416.905)" fill="#ffa412"/>
          <g id="Group_6387" data-name="Group 6387" transform="translate(0.005 1.834)">
            <path id="Path_11485" data-name="Path 11485" d="M2240.343,441.078l-.857.01c-.018-.249.024-5.911,2.136-8.11a3.06,3.06,0,0,1,.265.219C2239.882,435.133,2240.339,441.02,2240.343,441.078Z" transform="translate(-2229.119 -432.978)" fill="#e27f2b"/>
            <path id="Path_11486" data-name="Path 11486" d="M2153.107,442.031a23.986,23.986,0,0,0-1.864-7.758,3.519,3.519,0,0,1,.288-.3,20.965,20.965,0,0,1,2.5,8.051l10.237-.109a53.193,53.193,0,0,1-8.317,1.2,34.055,34.055,0,0,1-7.286-1.035Z" transform="translate(-2148.663 -433.857)" fill="#e27f2b"/>
          </g>
        </g>
        <path id="Path_11487" data-name="Path 11487" d="M2236.906,640.5s-5.272,6.142-5.581,11.5l2.686.143a25.822,25.822,0,0,1,4.644-11.276s-.621-.15-.827-.191C2237.552,640.618,2236.906,640.5,2236.906,640.5Z" transform="translate(-2190.872 -614.979)" fill="#028e74"/>
        <path id="Path_11488" data-name="Path 11488" d="M2111.558,639.759a26.86,26.86,0,0,0-4.182,11.7l-2.711-.047c.223-4.212,2.869-8.846,4.33-11.041C2109,640.372,2110.872,639.9,2111.558,639.759Z" transform="translate(-2078.668 -614.325)" fill="#028e74"/>
        <path id="Path_11489" data-name="Path 11489" d="M2281.079,676.315c-.133,6.289.651,18.812.651,18.812h3.71c1.751-8.811,2.37-14.48,2.37-17.572q0-.914-.008-1.7c-.023-2.64-.094-4.174-.094-4.174.7-16-2.5-24.553-3.5-25.731s-5.6-2.237-5.6-2.237a63.088,63.088,0,0,0-2.135,7.975c-.618,3.556,4.863,18.495,4.637,23.6C2281.1,675.607,2281.087,675.95,2281.079,676.315Z" transform="translate(-2230.825 -617.828)" fill="#50dcc2"/>
        <path id="Path_11490" data-name="Path 11490" d="M2302.5,942.743s-.784-12.523-.651-18.811a13.147,13.147,0,0,1,6.723-.461q.007.786.008,1.7c0,3.092-.618,8.76-2.37,17.572.773,3.246.721,6.75-.618,7.369s-5.771-1.7-5.719-2.731S2302.5,942.743,2302.5,942.743Z" transform="translate(-2251.596 -865.445)" fill="#d9935c"/>
        <path id="Path_11491" data-name="Path 11491" d="M1877.011,897.482a4.09,4.09,0,0,1,1.543-2.705,5.224,5.224,0,0,1,4.075-.477,4.507,4.507,0,0,0,2.231-.294c2.079-1.385,7.3-4.242,9.895-5.523a10.852,10.852,0,0,1,4.976,7.032c-4,1.764-12.752,1.733-14.418,1.348a7.109,7.109,0,0,1-2.716,1.224,4.083,4.083,0,0,1-1.529-.266,2.078,2.078,0,0,0-2.3.732,1.729,1.729,0,0,1-1.49.7C1876.8,899.258,1876.784,898.317,1877.011,897.482Z" transform="translate(-1876.868 -834.663)" fill="#d9935c"/>
      </g>
      <path id="Path_11492" data-name="Path 11492" d="M1609.023,1044.939h-27.638c-.473,0-1.531-.383-1.531-.856s3.555-.856,4.028-.856h23.43v-72.47a5.371,5.371,0,0,1,5.365-5.365h5.99a.856.856,0,1,1,0,1.712h-5.99a3.658,3.658,0,0,0-3.654,3.654Z" transform="translate(-739.174 -584.111)" fill="#023129"/>
      <path id="Path_11493" data-name="Path 11493" d="M1463.176,1044.939h-20.048a.856.856,0,0,1,0-1.712h18.337v-72.47a5.371,5.371,0,0,1,5.365-5.365h5.99a.856.856,0,1,1,0,1.712h-5.99a3.657,3.657,0,0,0-3.653,3.654Z" transform="translate(-617.294 -584.111)" fill="#023129"/>
      <path id="Path_11494" data-name="Path 11494" d="M1639.286,1062.771h-22.866a.857.857,0,0,1,0-1.712h22.866a.857.857,0,0,1,0,1.712Z" transform="translate(-770.844 -668.859)" fill="#023129"/>
      <path id="Path_11495" data-name="Path 11495" d="M1863.775,963.245h-7.4a1.427,1.427,0,1,1,0-2.853h7.4a1.427,1.427,0,1,1,0,2.853Z" transform="translate(-982.875 -579.681)" fill="#963333"/>
      <path id="Path_11496" data-name="Path 11496" d="M1826.248,965.392a5.374,5.374,0,0,0-5.308,4.584h1.74a3.659,3.659,0,0,1,3.569-2.872.856.856,0,1,0,0-1.712Z" transform="translate(-952.746 -584.111)" fill="#023129"/>
      <path id="Path_11497" data-name="Path 11497" d="M1653.775,963.245h-7.4a1.427,1.427,0,0,1,0-2.853h7.4a1.427,1.427,0,0,1,0,2.853Z" transform="translate(-796.842 -579.681)" fill="#963333"/>
      <path id="Path_11498" data-name="Path 11498" d="M1616.249,965.392a5.374,5.374,0,0,0-5.308,4.584h1.74a3.659,3.659,0,0,1,3.569-2.872.856.856,0,1,0,0-1.712Z" transform="translate(-766.714 -584.111)" fill="#023129"/>
      <g id="Group_6390" data-name="Group 6390" transform="translate(831.923 433.304)">
        <path id="Path_11499" data-name="Path 11499" d="M1578.02,1421.725l28.487-.5.08,25.811H1578.1Z" transform="translate(-1569.472 -1421.224)" fill="#d3671e"/>
        <path id="Path_11500" data-name="Path 11500" d="M1503.125,1425.32l22.807-.088.062,25.369-22.807-.016Z" transform="translate(-1503.125 -1424.775)" fill="#f1a34f"/>
        <path id="Path_11501" data-name="Path 11501" d="M1525.932,1425.232l-22.807.088.02,8,22.85,17.286Z" transform="translate(-1503.125 -1424.775)" fill="#d86713" opacity="0.4"/>
      </g>
      <g id="Group_6391" data-name="Group 6391" transform="translate(860.985 445.726)">
        <path id="Path_11502" data-name="Path 11502" d="M1768.555,1530.059h-3.424c-4.066,0-7.361,4.037-7.361,9.016s3.3,9.016,7.361,9.016h3.424c4.066,0,7.361-4.036,7.361-9.016S1772.62,1530.059,1768.555,1530.059Z" transform="translate(-1757.77 -1530.059)" fill="#056755"/>
        <ellipse id="Ellipse_142" data-name="Ellipse 142" cx="7.361" cy="9.016" rx="7.361" ry="9.016" transform="translate(3.424)" fill="#045143"/>
        <path id="Path_11503" data-name="Path 11503" d="M1820.765,1564.765c0,3.151-2.086,5.706-4.659,5.706s-4.659-2.555-4.659-5.706,2.086-5.706,4.659-5.706S1820.765,1561.614,1820.765,1564.765Z" transform="translate(-1805.321 -1555.749)" fill="#00b795"/>
      </g>
      <g id="Group_6392" data-name="Group 6392" transform="translate(835.806 404.772)">
        <path id="Path_11504" data-name="Path 11504" d="M1622.862,1171.32l32.782-.1-.09,28.915-32.6.1Z" transform="translate(-1613.08 -1171.22)" fill="#d3671e"/>
        <path id="Path_11505" data-name="Path 11505" d="M1537.151,1171.761l26.1-.1.072,28.915-26.1.1Z" transform="translate(-1537.151 -1171.61)" fill="#f1a34f"/>
        <path id="Path_11506" data-name="Path 11506" d="M1563.252,1171.66l-26.1.1.023,9.244,26.15,19.57Z" transform="translate(-1537.151 -1171.61)" fill="#d86713" opacity="0.4"/>
      </g>
      <path id="Path_11507" data-name="Path 11507" d="M1917.13,957.448s-2.777,1.891-3.511,1.425.514-1.522-.666-1.9S1917.13,957.448,1917.13,957.448Z" transform="translate(-1034.107 -576.564)" fill="#d9935c"/>
    </g>
  </g>
</svg>
