<?xml version="1.0" encoding="utf-8"?>
<!-- Generator: Adobe Illustrator 28.3.0, SVG Export Plug-In . SVG Version: 6.00 Build 0)  -->
<svg version="1.1" id="Layer_1" xmlns="http://www.w3.org/2000/svg" xmlns:xlink="http://www.w3.org/1999/xlink" x="0px" y="0px"
	 viewBox="0 0 1844 272" style="enable-background:new 0 0 1844 272;" xml:space="preserve">
<style type="text/css">
	.st0{fill:url(#SVGID_1_);}
	.st1{fill:#FF2056;}
</style>
<linearGradient id="SVGID_1_" gradientUnits="userSpaceOnUse" x1="10" y1="139.1229" x2="362.5408" y2="139.1229">
	<stop  offset="0" style="stop-color:#E0DB00"/>
	<stop  offset="1" style="stop-color:#FF2056"/>
</linearGradient>
<path class="st0" d="M359.8,185c-3.9-8.3-9.5-15-17.9-18.9c-9-4.2-18.5-4.9-28.2-3.7c-2.4,0.3-4.8,1-7.2,1.4
	c-0.1-0.2-0.2-0.2-0.2-0.3c0-0.3,0.1-0.6,0.2-0.9c2.4-7,2.2-14,0-21c-3.6-11.3-7.2-22.5-10.8-33.7c-0.8-2.6-0.8-2.6,1.9-2.7
	c3.2-0.2,6.4-0.9,7.5-4.3c2.6-7.3,3.3-14.9,1.8-22.6c-0.5-2.4-1.8-4.2-4.2-5c-4.9-1.7-10-2.1-14.7,0.4c-2.1,1.1-4.2,1.9-6.6,2.3
	c-5.8,1.1-11.6,2.3-17.4,3.4c2.6-3,5.7-5.4,8.3-8.2c2.5-2.8,5.6-4.3,9-5.6c1.9-0.8,3.5-0.6,5.4,0.2c4.9,2.1,9.7,2,14.3-1
	c4.7-3.1,7.7-7.6,9.7-12.8c0.5-1.2,1.1-1.6,2.3-1.4c1.8,0.3,3.6,0.5,5.5,0.6c3.5,0.2,5.5-2.5,4.3-5.8c-0.6-1.7-1.7-3.1-3-4.3
	c-1.2-1.1-1.8-2.3-2.1-4c-0.7-4.4-2.4-8.3-5.5-11.6c-7.4-7.8-23-8-31.4-0.5c-3.9,3.5-6.8,7.6-8.7,12.5c-0.3,0.9-0.6,1.6-2,1.4
	c-8.8-1-17.5-0.3-26,1.8c-24,5.8-43.4,18.7-57.6,39c-4.9,7.1-8.4,14.8-9.5,23.4c-0.7,5.5-0.3,10.9,3.2,16c-2.7,0-4.9,0-7.2,0
	c-1.2,0-1.3-0.6-1.2-1.5c0.7-8,1.5-16.1,2.2-24.1c0.5-5.8,1.1-11.6,1.5-17.3c0.2-2.7-1.1-4.2-3.6-4.2c-20.8,0-41.6,0-62.4,0
	c-2,0-3,1.1-3.5,2.7c-0.2,0.8-0.3,1.6-0.4,2.4c-1.3,14.8-2.6,29.7-3.8,44.5c-0.3,4,1.1,5.5,5.2,5.5c6.1,0,12.2,0,18.3,0
	c1.6,0,2.1,0.4,1.5,2c-1.2,3.2-2.4,6.5-3.5,9.7c-0.5,1.4-1.2,2.4-2.4,3.3c-2.6,2-5.2,3.8-7.6,5.9C106,154.5,99.1,161.3,93,169
	c-5.7,7.1-10.8,14.6-14.6,22.9c-2.4,5.2-4.4,10.6-4.2,16.5c0.2,5.2,3.2,8.1,8.4,8.2c2.9,0,5.9,0.1,8.8,0c1.5-0.1,1.8,0.4,1.7,1.9
	c-1.2,12.9,2.8,23.6,12.9,32c6,5,13.2,7,20.8,8c3.2,0.4,6.4-0.4,9.5-1.1c9.5-2.1,17.5-6.8,23.8-14.3c5.8-6.9,9.4-14.8,9.9-23.9
	c0.1-2.1,0.7-2.6,2.8-2.6c26.8,0.1,53.6,0.1,80.4,0c5.6,0,11.2-0.5,16.2-3.3c0.7-0.4,1.2-0.4,1.7,0.2c2.1,2.5,4.8,3.2,7.9,3.1
	c1.7-0.1,2,0.3,1.9,2.1c-2.2,22.7,14.5,40,37.2,39.9c1.3,0,2.4-0.6,3.6-0.8c13.4-2.2,23.8-9.1,30.6-20.8c7.3-12.7,8.1-25.8,0.7-39
	c-0.3-0.6-1.3-1.2-0.7-1.9c0.4-0.6,1.4-0.3,2.1-0.2c3.1,0,6.4,0.4,8.3-3c0-0.7,0-1.5,0-2.2C361.2,189,360.7,186.9,359.8,185z
	 M302.5,50.8c-1.3,3-3.1,5.5-5.7,7.4c-2,1.5-4.5,1.3-6.7,0.4c-2.6-1.1-5.1-2.2-8-1.1c-0.5,0.2-0.8,0-0.9-0.5c-0.7-2.4,0-3.5,2.5-3.5
	c0.1,0,0.3,0,0.4,0c2.8,0.2,5.2-1,7.4-2.5c3.3-2.2,6.9-1.5,10.4-1.5C302.9,49.5,302.7,50.1,302.5,50.8z M278.8,42.9
	c2.4-8.3,8.5-15.5,18.2-15.2c7.8,0.1,11.9,3.9,13,12c0.4,2.8,0.4,2.8-2.4,2.6c-2.9-0.2-5.7-0.2-8.6-0.6c-4.1-0.6-7.7,0.3-11.2,2.4
	c-2.6,1.6-5.4,1.1-8.1,0.7C278.8,44.5,278.5,43.9,278.8,42.9z M187.9,93.8c1.9-4.5,4.4-8.6,7.4-12.5c9.1-11.8,20.4-21,34-27.2
	c10.5-4.8,21.6-7.5,33.2-7.4c1.5,0,3.1,0.1,4.6,0c3.3-0.2,4.6,1.8,5.3,4c1.4,4.5,0.9,8.6-2.7,12.1c-7,6.9-14.5,13.2-22.2,19.3
	c-1.5,1.2-3.2,1.1-4.7,1.5c-2.9,0.8-4.3,2.4-3.9,4.7c0.4,2.4,2.5,3.7,5.4,3.2c11.4-2.2,22.8-4.4,34.1-6.7c2.3-0.5,4.6-0.9,6.9-1.4
	c1.5-0.3,2.4,0.4,3,1.6c0.7,1.3-0.5,1.8-1.3,2.4c-1.7,1.2-3.3,1.7-5.5,1c-5.3-1.9-10.2,0.1-15,2.2c-9.6,4.1-19.4,8-29.5,10.7
	c-2.4,0.6-4.8,1.1-7-0.7c-1.9-1.6-2.6-3.8-1.8-6.1c2-6,5.4-11.4,9-16.6c3.1-4.5,6.4-8.9,10.7-12.4c1.8-1.4,1.9-4,0.5-5.7
	c-1.3-1.6-3.5-1.9-5.3-0.5c-4.8,3.5-8.2,8.3-11.7,13c-4.1,5.6-7.7,11.6-10.2,18.2c-0.7,1.8-1.4,3.6-1.3,5.5c0.1,1.8-0.6,1.9-2.1,1.6
	c-8.1-1.7-16.2-2.6-24.5-2.4c-1.4,0-2.8,0.1-4.2,0.3C187.5,95.7,187.3,95.2,187.9,93.8z M262.6,120.5c-4-4.9-9.5-7.8-14.8-10.8
	c-1.1-0.6-2.3-1.2-3.9-2.1c8.9-2.9,17.1-6.1,25.2-9.5c1.2-0.5,1.5-0.1,1.8,0.9c2.4,7.9,4.9,15.7,7.3,23.5c1.8,6,3.5,12,5.4,17.9
	c2.7,8.4,0.9,15.9-4,22.9c-4.7,6.7-9.3,13.4-14.1,20.1c-2.9,4.1-6.3,7.7-11.8,8.4c-0.8,0.1-1.6,0.4-1.9-0.8
	c-1.4-5.4-5.6-8.1-10.4-9.9c-1.6-0.6-1.6-1.1-0.7-2.4c7.6-11.5,15.2-23.1,22.8-34.7c2-3,3.6-6.2,4.1-9.9
	C268.1,128.9,265.8,124.5,262.6,120.5z M184.9,106.1c0.1-1.3,0.5-2,1.8-2.3c3.4-0.7,6.8-0.7,10.3-0.7c20.6-0.1,38.5,7.8,55.4,18.7
	c2,1.3,3.7,3.2,5.1,5.1c2.2,3,2.6,6.3,0.8,9.7c-3.9,7.1-8.5,13.6-13,20.4c-5.1,7.8-10.3,15.5-15.4,23.2c-2.1,3.2-0.7,6.2,3.3,6.9
	c3.7,0.7,7.3,1.6,9.8,5c-3.9,0-7.9,0-11.8,0c-3.4,0-6.9,0-10.3,0c-1.3,0-1.7-0.4-1.5-1.7c0.4-1.9,0.8-3.9,1.7-5.7
	c7.4-15.8,15.6-31.2,23.8-46.6c2.1-3.9,0.7-6.6-3.6-7.1c-16.7-2-33.1-5-48-13.2c-0.9-0.5-1.8-1.1-2.7-1.5
	C185.7,114.5,184.6,110.8,184.9,106.1z M213.9,181.4c-1.4,2.9-2.4,5.9-2.5,9c-0.1,1.5-0.7,1.9-2.1,1.8c-2.9-0.2-4.7-1.9-6-4.2
	c-1.3-2.2-1.6-4.7-1.6-7.4c0.2-6.9,3.1-13,7.3-18.6c4.4-5.9,9.8-10.9,15.9-15c0.8-0.6,1.4-1.3,1.7-2.2c0.4-1,0.7-2.1,1.1-3.1
	c1.5-4.2,1.5-4.1,5.8-3.6c1.8,0.2,2.1,0.7,1.2,2.3c-3.9,7.3-7.8,14.6-11.5,22C219.9,168.7,216.9,175,213.9,181.4z M192.7,127.2
	c0.9,0,1.7,0.3,2.5,0.6c7.8,3.3,15.7,6.5,24.1,8.1c0.6,0.1,1.8,0,1.5,1.1c-0.4,1,0,2.7-1.9,2.7c-0.4,0-0.9,0-1.3,0
	c-13.9,0-27.7,0-41.6,0c-14,0-28,0-42.1,0c-2.1,0-2.3-0.6-1.6-2.3c0.9-2.2,1.6-4.6,2.5-6.8c0.8-2.1,2.2-3.4,4.6-3.4
	C157.2,127.2,174.9,127.2,192.7,127.2z M112.5,119.2c-1.9,0-2.3-0.4-2.1-2.3c1.1-11.7,2.1-23.4,3.1-35.1c0.1-1.9,0.8-2.2,2.6-2.2
	c8.2,0.1,16.3,0,24.5,0c8.3,0,16.6,0,24.9,0c1.5,0,2,0.3,1.8,2c-1.1,11.3-2,22.5-3,33.8c-0.3,3.9-0.3,3.9-4.1,3.9
	C144.2,119.2,128.3,119.1,112.5,119.2z M162.1,218.4c-0.6,7.1-3,13.4-7.5,18.9c-7.2,8.7-16.5,13.2-27.9,12.8
	c-15.9-0.5-28.2-15.5-25.7-31.2c0.3-2,1-2.9,3.1-2.4c0.6,0.1,1.2,0,1.8,0c4.1,0,4.1,0,3.9,4.2c-0.5,15.2,15.3,25.2,29.5,18.4
	c8.7-4.1,13.4-11.1,13.9-20.8c0.1-1.6,0.5-2,2-1.9c1.7,0.2,3.4,0.2,5.1,0C161.8,216.3,162.2,216.9,162.1,218.4z M118.2,217.6
	c0.4-1.2,1.1-1.1,2-1.1c3.9,0,7.8,0,11.7,0c0,0,0,0,0,0c3.9,0,7.8,0,11.7,0c1,0,1.7,0.1,1.7,1.4c-0.1,5.8-2.8,10.3-7.7,13.3
	c-4.8,2.9-9.9,3.1-14.8,0C118.7,228.5,116.7,222.2,118.2,217.6z M265.9,206c-3.1,1.9-6.6,2.4-10.1,2.4c-15.1,0-30.1,0-45.2,0
	c-41.9,0-83.7,0-125.6,0c-3.1,0-3.2,0-2.7-3.1c1-6.4,3.9-12.1,7.2-17.6c7.2-12,16.2-22.4,26.8-31.5c2.9-2.5,5.8-4.9,8.8-7.3
	c1-0.8,2.1-1.4,3.6-1.4c27,0,53.9,0,80.9,0c0.3,0,0.7,0,1.5,0.1c-1.9,1.9-3.5,3.6-5,5.3c-6,6.6-10.4,14-11.9,22.9
	c-1.3,7.5-0.4,14.7,5.5,20.4c2.8,2.7,6.2,4,9.9,4.1c13.4,0.1,26.7,0.1,40.1,0c7.4-0.1,14-2.3,19-8.2c3.6-4.2,6.6-8.9,9.8-13.5
	c3.3-4.8,6.8-9.6,9.8-14.6c5.2-8.7,5.4-18,2.4-27.6c-4-12.6-7.8-25.4-11.7-38.1c-0.2-0.7-1-1.6-0.4-2.2c0.7-0.7,1.6,0.2,2.4,0.4
	c0.5,0.1,0.9,0.5,1.3,0.7c5.7-0.3,10.2-2.9,13.2-7.7c1.5-2.4,1.4-5.2,0-7.8c-0.8-1.5-0.3-1.7,1.1-1.7c2.8,0.1,2.9,0.2,3,3
	c0.1,3.9-0.1,7.7-0.8,11.6c-0.3,1.8-0.9,2.8-3,2.5c-1.6-0.3-3.2-0.2-4.8-0.4c-2.6-0.4-4.4,0.5-5.7,2.8c-0.2,3.5,1.5,6.5,2.5,9.7
	c3.7,11.8,7.8,23.5,11.2,35.4c2.4,8.4,0.8,16.1-4.3,23.1c-6.8,9.5-13.4,19-20.1,28.6C272.3,200.1,269.7,203.6,265.9,206z
	 M307.6,248.9c-11.8-3.3-20.1-15.5-19-28.2c0-0.1,0-0.1,0-0.2c0.1-2.7,0.7-4.8,3.4-6.5c4.4-2.6,7.6-6.9,11.2-10.5
	c2.3-2.3,4.7-4.4,7.4-6.2c1.5-1,3.1-1.5,5-1.5c7.6,0,15.3,0.1,22.9-0.1c1.9,0,3.2,0.7,4.3,2c4.6,5.4,7,11.6,7,18.7
	C349.9,238.3,328.4,254.7,307.6,248.9z M350.1,187.8c-10,0.1-20,0.6-30,0c-8.6-0.5-15,2.9-20.8,8.6c-3.1,3-6.2,6.1-9.2,9.2
	c-2,2.1-4.3,3.5-7.4,3c-1.4-0.2-2.8,0-4.2,0c-0.6,0-1.2,0.1-1.5-0.6c-0.2-0.6-0.1-1.1,0.4-1.6c4.2-5.1,7.8-10.6,11.6-16
	c2.4-3.3,4.8-6.6,7-10.1c3.2-5,8.3-7,13.6-8.7c3.9-1.3,8-1.7,12.2-1.5c7.2,0.2,14.2,1.1,20.3,5.4c4.1,2.9,7.3,6.6,9.5,11
	C352.6,188.4,350.9,187.8,350.1,187.8z M16.4,141.8c-2.9,0-5.2-0.6-6.4-3.5c0-0.4,0-0.9,0-1.3c1.1-2.5,3.1-3.3,5.8-3.3
	c25.1,0.1,50.2,0,75.3,0c0.1,0,0.3,0,0.4,0c3.3,0,5.2,1.6,5.2,4.1c-0.1,2.6-1.9,4-5.3,4c-9.3,0-18.7,0-28,0
	C47.8,141.8,32.1,141.7,16.4,141.8z M50.4,112.4c0.8-1.3,2.1-1.8,3.5-1.8c11,0,22,0,33,0c2.4,0,4.1,1.8,4.2,4c0,2.2-1.8,4-4.3,4
	c-5.4,0-10.9,0-16.3,0c-5.5,0-11,0.1-16.5,0C50.5,118.5,48.7,115.2,50.4,112.4z M66.5,161.4c0,2.4-1.8,4-4.6,4.1
	c-10,0-19.9,0-29.9,0c-2.9,0-4.6-1.7-4.5-4.2c0.1-2.5,1.7-3.8,4.7-3.8c4.9,0,9.8,0,14.7,0c5,0,10,0,15,0
	C64.6,157.5,66.5,159.2,66.5,161.4z M188.2,182.6c0.1,1.9-0.4,3.5-2.1,4.6c-1.4,0.9-2.8,0.7-4.2-0.1c-1.6-1-1.8-2.5-1.9-4.2
	c-0.4-5.5-1.9-10.6-5.4-15.1c-3.2-4.1-7.4-6.3-12.5-7.1c-13.3-2.1-25.1,1.8-36,9.1c-5.8,3.9-10.8,8.7-15.7,13.7
	c-2.5,2.6-5.9,1.9-7-1.4c-0.5-1.4-0.1-2.7,0.8-3.7c10.9-11.8,23.3-21.3,39.2-25c9.3-2.2,18.7-2.3,27.6,1.8
	c9.5,4.4,14.2,12.4,16.3,22.4C187.9,179.3,188,181,188.2,182.6z M320.9,197.9c-12.5,0-23.2,10.6-23.3,23.1
	c-0.1,11.3,8.7,20.2,19.9,20.3c12.3,0.1,23.3-10.7,23.5-23C341.1,207,332.2,198,320.9,197.9z M332,223.2c-2.2,6-8,10-14.4,10
	c-7.2,0-12.2-5.1-12-12.2c0.1-6,3.1-10.3,8.2-13.1c4.4-2.5,9.1-2.7,13.6,0.1C332.4,210.8,334.3,217.1,332,223.2z"/>
<g>
	<polygon class="st1" points="523.9,150.1 492.4,17.9 480.5,17.9 471.4,17.9 459.3,17.9 427.9,150.1 401.9,17.9 363.1,17.9 
		405.3,207.6 422.2,207.6 430.7,207.6 444.9,207.6 475.8,83.1 506.8,207.6 521,207.6 529.5,207.6 546.4,207.6 588.5,17.9 
		549.7,17.9 	"/>
	<path class="st1" d="M732.1,120.2c-5.3-4.9-11.9-9.2-19.8-13.2c-7.9-3.9-17-7.4-27.4-10.6c-6.2-1.9-11.6-3.9-16.3-5.9
		c-4.7-2-8.7-4.1-11.9-6.4c-3.2-2.3-5.6-4.7-7.3-7.3c-1.6-2.6-2.4-5.5-2.4-8.7c0-4.3,1.1-8.1,3.4-11.5c2.3-3.4,5.7-6.2,10.2-8.3
		c4.5-2.1,10.2-3.1,17-3.1c7.1,0,12.9,1.2,17.6,3.7c4.7,2.5,8.2,5.8,10.5,10c2.3,4.2,3.5,9.1,3.5,14.7h39c0-11.3-2.9-21.3-8.7-30.1
		c-5.8-8.8-13.9-15.7-24.4-20.7c-10.5-5-22.7-7.6-36.7-7.6c-10.3,0-19.7,1.3-28.3,3.8c-8.6,2.5-16,6.1-22.3,10.7
		c-6.3,4.6-11.2,10.2-14.6,16.7c-3.5,6.5-5.2,13.7-5.2,21.6c0,8.2,1.7,15.3,5,21.5c3.4,6.2,8,11.6,13.9,16.2
		c5.9,4.6,12.7,8.7,20.4,12.2c7.7,3.5,15.9,6.6,24.5,9.4c7.8,2.4,14.1,4.8,19,7c4.9,2.3,8.7,4.5,11.4,6.8c2.7,2.3,4.6,4.8,5.6,7.6
		c1,2.7,1.5,5.8,1.5,9.2c0,4.3-1.1,8.1-3.2,11.5c-2.1,3.4-5.4,6.1-9.8,8c-4.4,2-10,2.9-16.8,2.9c-5.6,0-10.7-0.6-15.4-1.8
		c-4.7-1.2-8.7-3-12-5.5c-3.4-2.5-5.9-5.8-7.8-9.9c-1.8-4.1-2.7-9.1-2.7-15h-39.4c0,10.7,2.2,19.9,6.7,27.7s10.4,14.2,17.8,19.3
		c7.5,5,15.8,8.8,24.9,11.3c9.2,2.5,18.4,3.7,27.9,3.7c10.5,0,19.9-1.2,28.4-3.5c8.5-2.3,15.7-5.8,21.8-10.3
		c6.1-4.5,10.8-10,14-16.5c3.2-6.5,4.8-13.9,4.8-22.1c0-7.8-1.4-14.8-4.1-21C741.4,130.6,737.4,125,732.1,120.2z"/>
	<rect x="772.8" y="111.4" class="st1" width="73.9" height="29.4"/>
	<path class="st1" d="M992.8,25.9c-10.7-5.3-23.5-8-38.4-8h-74.1v189.7h39.2V140h34.9c14.9,0,27.7-2.4,38.4-7.3
		c10.7-4.9,18.8-11.8,24.5-20.7c5.7-8.9,8.5-19.5,8.5-31.8c0-12.1-2.8-22.8-8.5-32.2C1011.6,38.6,1003.4,31.3,992.8,25.9z M983,95.4
		c-2.2,4.4-5.6,7.9-10.3,10.4c-4.7,2.5-10.8,3.7-18.3,3.7h-34.9v-61h34.9c7.5,0,13.6,1.5,18.3,4.4c4.7,3,8.2,6.9,10.3,11.7
		c2.2,4.9,3.3,10.1,3.3,15.8C986.3,86,985.2,91,983,95.4z"/>
	<path class="st1" d="M1163.3,173.6v-60.3c0-10.9-2.5-20.1-7.4-27.4c-4.9-7.3-11.7-12.8-20.2-16.4c-8.5-3.6-18.3-5.5-29.3-5.5
		c-9.2,0-17.4,1.2-24.8,3.5c-7.4,2.3-13.7,5.6-19,9.7c-5.3,4.1-9.4,8.9-12.2,14.3c-2.8,5.4-4.2,11.1-4.2,17.1h37.7
		c0-3.6,0.8-6.7,2.5-9.3c1.7-2.6,4-4.7,7.1-6.1c3.1-1.4,6.7-2.1,10.9-2.1c4.9,0,8.9,0.9,12,2.7c3.1,1.8,5.4,4.4,6.9,7.6
		c1.5,3.3,2.2,7.1,2.2,11.7v8.7h-16.9c-10.8,0-20.3,1-28.5,3.1c-8.2,2-15,5-20.5,9c-5.4,4-9.6,8.8-12.4,14.5
		c-2.8,5.7-4.2,12.3-4.2,19.7c0,8.2,2.1,15.4,6.3,21.8c4.2,6.4,10,11.4,17.3,15c7.3,3.6,15.4,5.4,24.4,5.4c7.1,0,13.2-1.1,18.3-3.2
		c5.1-2.1,9.5-4.9,13.2-8.2c1.6-1.5,3.1-3,4.4-4.5c0.9,5.3,2.2,9.7,3.9,13.3h38.1v-2.2c-1.8-3.6-3.2-7.9-4.2-12.8
		C1163.8,187.6,1163.3,181.3,1163.3,173.6z M1123.8,170.5c-2.3,3.3-5.6,6.1-9.7,8.3c-4.2,2.3-9.1,3.4-14.8,3.4c-3.8,0-7-0.7-9.8-2.1
		c-2.8-1.4-4.9-3.4-6.4-6c-1.5-2.6-2.2-5.4-2.2-8.7c0-3.2,0.5-6.2,1.6-8.9c1.1-2.7,2.8-5.1,5.2-7.1c2.4-2,5.4-3.6,9-4.8
		c3.7-1.1,8-1.7,12.9-1.7h15.8v24.8C1125,168.7,1124.4,169.6,1123.8,170.5z"/>
	<path class="st1" d="M1260.9,64c-6.6,0-12.5,1.6-17.7,4.7c-5.1,3.1-9.5,7.6-13,13.3c-0.4,0.6-0.8,1.3-1.2,2l-1.3-17.4h-35.4v141
		h37.7v-92.9c1.2-2.8,2.8-5.3,4.9-7.3c2.6-2.6,5.8-4.5,9.7-5.9c3.9-1.3,8.5-2,13.8-2c2.1,0,4.4,0.1,7,0.3c2.6,0.2,4.8,0.5,6.6,0.7
		l0.7-34.8c-1.4-0.5-3.2-0.9-5.4-1.2C1265.1,64.2,1263,64,1260.9,64z"/>
	<path class="st1" d="M1377.4,131.3c-8-3.3-17.1-6.1-27.3-8.1c-5-1-9.1-2-12.5-3.2c-3.4-1.2-6.1-2.5-8.2-3.8
		c-2.1-1.4-3.6-2.9-4.5-4.6c-0.9-1.7-1.4-3.6-1.4-5.8c0-2.9,0.8-5.5,2.4-7.9c1.6-2.4,3.9-4.3,7-5.7c3.1-1.4,6.7-2.1,10.9-2.1
		c5.1,0,9.2,0.8,12.4,2.5c3.2,1.7,5.5,4,7.1,6.9c1.5,2.9,2.3,6.2,2.3,9.8h37.7c0-8.7-2.4-16.4-7.1-23.3
		c-4.8-6.8-11.6-12.2-20.4-16.1c-8.8-3.9-19.4-5.9-31.7-5.9c-8.8,0-16.7,1.2-23.7,3.5c-7,2.3-12.9,5.5-17.8,9.5
		c-4.8,4-8.5,8.7-11.1,13.9c-2.6,5.2-3.9,10.8-3.9,16.7c0,6,1.3,11.3,3.8,16c2.5,4.6,6,8.7,10.5,12c4.5,3.4,9.8,6.3,16,8.7
		c6.1,2.4,12.8,4.4,19.9,5.9c7.9,1.6,14,3.3,18.2,5.1c4.2,1.9,7.1,3.9,8.7,6.1c1.6,2.2,2.4,4.6,2.4,7.3c0,3-0.9,5.7-2.6,8
		c-1.7,2.3-4.2,4.1-7.4,5.5c-3.2,1.3-7.3,2-12.2,2c-4.5,0-8.7-0.7-12.6-2.1c-3.9-1.4-7.1-3.6-9.5-6.8c-2.5-3.1-3.8-7.2-4-12.4H1283
		c0,7.6,2.3,15.1,7,22.3c4.7,7.3,11.5,13.2,20.7,17.9c9.1,4.7,20.2,7,33.4,7c9.1,0,17.2-1.1,24.5-3.2c7.3-2.1,13.5-5.1,18.8-9
		c5.2-3.9,9.2-8.4,12-13.6c2.8-5.2,4.2-10.9,4.2-17.2c0-9.2-2.4-16.7-7.1-22.3C1391.8,139.2,1385.4,134.7,1377.4,131.3z"/>
	<path class="st1" d="M1535.2,83c-5.3-6.1-11.8-10.8-19.5-14.1c-7.8-3.3-16.7-5-26.7-5c-10.3,0-19.5,1.8-27.7,5.3
		c-8.2,3.5-15.1,8.5-20.9,15c-5.7,6.5-10.1,14.2-13.1,23.1c-3.1,8.9-4.6,18.6-4.6,29.3v5.2c0,9.4,1.6,18.2,4.8,26.5
		c3.2,8.3,7.9,15.6,13.9,21.8c6.1,6.3,13.4,11.1,22.2,14.7c8.7,3.5,18.6,5.3,29.6,5.3c9.2,0,17.3-1.2,24.5-3.7
		c7.1-2.5,13.3-5.7,18.4-9.6c5.1-3.9,9.1-8,12.1-12.2l-18.3-19.8c-4.3,5.4-9.3,9.4-15.2,12.1c-5.9,2.7-12.2,4-19,4
		c-5.5,0-10.4-1-14.7-2.9c-4.3-1.9-8-4.6-11-8.1c-3-3.5-5.3-7.6-6.9-12.4c-0.9-2.8-1.6-5.8-2-8.9h90.3v-15.6
		c0-10.3-1.4-19.7-4.1-28.2C1544.4,96.4,1540.4,89.1,1535.2,83z M1514.2,123.7h-52.8c0.2-1.4,0.5-2.9,0.7-4.2
		c1.1-5.3,2.7-9.8,5-13.7s5.1-6.9,8.7-9.1c3.6-2.2,7.8-3.3,12.8-3.3c5.8,0,10.6,1.2,14.4,3.6c3.7,2.4,6.6,5.7,8.4,9.8
		c1.9,4.1,2.8,8.8,2.8,14V123.7z"/>
	<rect x="1574.6" y="7.5" class="st1" width="37.8" height="200.1"/>
	<rect x="1645.5" y="7.5" class="st1" width="37.8" height="200.1"/>
	<path class="st1" d="M1793.9,66.6l-26.6,88.6l-26.6-88.6h-40.4L1750,208l-4.2,10.9c-1.1,3.6-2.7,6.6-4.6,8.9
		c-1.9,2.3-4.4,4-7.6,5.1c-3.1,1.1-7.2,1.7-12.2,1.7c-1,0-2,0-3-0.1c-1,0-2-0.1-3-0.1V262c3.1,0.8,5.8,1.4,8.1,1.8
		c2.3,0.4,5.2,0.7,8.8,0.7c7.5,0,13.8-1.2,19-3.5c5.2-2.3,9.5-5.4,12.9-9.1c3.4-3.7,6.2-7.6,8.2-11.7c2-4.1,3.7-7.9,4.9-11.5
		l56.9-162.2H1793.9z"/>
</g>
</svg>
